<svg width="309" height="250" viewBox="0 0 309 250" fill="none" xmlns="http://www.w3.org/2000/svg">
<circle cx="150.5" cy="128.5" r="84.5" fill="#FFE27D" fill-opacity="0.1"/>
<circle cx="151" cy="129" r="121" fill="#FFE27D" fill-opacity="0.1"/>
<circle cx="8.5" cy="90.5" r="8.5" fill="#FFE27D" fill-opacity="0.12"/>
<circle cx="35.5" cy="235.5" r="8.5" fill="#FFE27D" fill-opacity="0.1"/>
<circle cx="247.5" cy="16.5" r="8.5" fill="#FFE27D" fill-opacity="0.1"/>
<circle cx="300.5" cy="202.5" r="8.5" fill="#FFE27D" fill-opacity="0.1"/>
<path d="M116.809 206.251H116.655L116.577 206.2L116.474 206.045L116.371 205.942L116.474 205.787L116.758 205.427L116.912 205.453L117.041 205.556L117.221 205.762V205.813L117.273 205.993L117.17 206.122L116.99 206.225L116.809 206.251ZM61.0401 100.766L60.9886 100.921L60.834 100.844L60.628 100.766H60.5249L60.4734 100.792V100.56L60.5249 100.406H60.6537L60.7825 100.483L61.0401 100.766ZM44.7344 71.7611L44.786 71.8899L44.5541 71.6066L44.3738 71.4263V71.246L44.3481 71.1172L44.4253 71.0914L44.6572 71.452L44.7344 71.6581V71.7611Z" fill="#CDCDCD" stroke="white" stroke-width="2" stroke-linecap="round" stroke-linejoin="round"/>
<path d="M186.901 203.778L186.875 203.804L185.484 204.628L183.99 205.504L183.629 205.659L183.243 205.71L181.465 205.633L181.311 205.53L180.28 204.087L178.58 201.717L178.117 201.46L173.403 202.104L168.122 201.563L165.082 201.254L162.506 200.996L161.94 200.79L159.956 199.631L159.287 199.502L155.423 199.476L152.95 199.451L152.666 199.502L151.919 199.811H151.559L150.734 199.657L149.987 199.631L148.802 199.734L147.875 199.966L147.643 199.991L147.128 199.837L146.87 199.785L146.69 199.94L146.51 200.249L146.33 200.481L146.098 200.584L145.789 200.532L145.299 200.301L145.093 200.275L144.835 200.404L144.655 200.635L144.501 200.893L144.295 201.073L144.011 201.125L143.882 201.073L143.805 201.048L143.702 200.893L143.754 200.635V200.481L143.676 200.455L143.393 200.532L143.161 200.558L142.697 200.507L142.234 200.558H142.002L141.77 200.481L141.255 200.069L140.637 199.373V198.961L140.972 197.673L140.946 197.003L140.714 196.205L140.662 195.896L140.688 195.561L140.791 195.046L141.1 192.186L141.075 191.645L140.946 191.13L140.765 190.564L140.637 189.997V189.662L140.765 189.301L140.997 188.838L141.306 188.426L143.29 186.339L144.655 185.154L145.042 184.742L145.196 184.536L145.351 184.278L145.634 183.583L145.789 183.274L146.046 182.965L146.355 182.784L146.639 182.655L147.463 182.475L148.004 182.295L148.571 182.011L149.112 181.651L149.343 181.419L149.524 181.187L149.678 180.93L149.807 180.595L149.884 180.26L149.936 179.77V179.332L149.859 178.74L149.446 177.091V176.782L149.524 176.447L149.807 175.984L150.09 175.726L150.915 175.314L151.095 175.159L151.224 174.979L151.301 174.696L151.353 174.284V172.635L154.753 174.773L155.629 175.211L156.273 175.469L157.432 175.752L160.574 175.958L189.167 172.867L190.765 172.403L186.901 203.778Z" fill="#CDCDCD" stroke="white" stroke-width="2" stroke-linecap="round" stroke-linejoin="round"/>
<path d="M190.765 172.403L189.168 172.867L160.575 175.958L157.432 175.752L156.273 175.469L155.629 175.211L154.753 174.773L151.353 172.635L151.147 172.506L146.356 168.05L145.171 166.066L144.475 165.242L144.269 164.933L144.192 164.521V164.186L144.681 161.971L144.913 161.481L145.634 160.348L145.737 160.116L145.815 159.833L145.84 159.523L145.815 159.292L145.737 159.008L145.583 158.699L144.552 157.591L143.831 156.613L143.445 155.969L142.775 155.196L140.998 153.573L137.803 148.808L137.675 148.524L137.597 148.267L137.572 147.983L137.597 147.726L138.087 145.819L138.164 145.253L138.009 143.063L138.035 142.78L138.138 142.522L138.293 142.29L138.653 141.801L138.808 141.543L138.937 141.286L139.014 141.002L139.04 140.719V140.461L138.447 136.057V135.516L138.782 133.584V133.506L138.576 133.3L138.344 133.197L138.087 133.094L136.644 132.837L136.361 132.811L136.103 132.862L134.661 133.249L134.377 133.275L134.094 133.249L133.553 133.069L133.296 132.888L133.038 132.656L132.755 132.167L132.677 131.832V131.497L132.755 130.158L132.935 129.565L132.986 129.333L132.935 129.076L132.755 128.792L132.42 128.509L132.111 128.355L131.827 128.252L131.261 128.123L128.607 127.917L126.727 127.942L126.263 127.865L126.006 127.788L125.748 127.659L125.49 127.504L125.259 127.298L125.078 127.092L124.949 126.912L123.378 123.151L123.018 121.245L122.914 120.91L122.605 120.215L121.961 118.102L121.704 117.69L121.472 117.433L121.214 117.226L120.751 116.969L120.622 116.84L120.467 116.634L120.39 116.376L120.364 115.526L120.467 114.264L120.442 113.028L120.596 110.761L120.802 109.73L120.854 109.215L120.828 108.906L120.673 108.468L120.648 108.365V108.159L120.725 107.953L120.905 107.644L121.472 106.897L121.523 106.845L121.678 106.459L121.833 105.867L121.807 105.403L122.039 104.888L122.863 103.651L123.018 103.497L123.352 103.239L123.636 103.085L123.919 103.059L124.177 103.11L125.49 103.754L126.031 103.96L126.881 104.192L129.097 104.424L129.715 104.398L131.441 104.141L132.008 104.166L132.961 104.45H133.218L133.45 104.373L133.759 104.244L134.043 103.986L134.3 103.651L134.48 103.162L134.506 102.801L134.403 102.466L134.094 101.925L133.965 101.642L133.914 101.384L133.965 101.05L134.146 100.689L135.331 99.0918L136.49 97.9327L136.773 97.7266L137.056 97.572L141.152 96.6189L141.642 96.3871L141.925 96.1553L142.595 95.537L143.47 94.9703L143.728 94.7127L143.96 94.3264L144.398 93.4248L144.733 92.9611L144.939 92.755L145.093 92.6262L145.299 92.4974L145.531 92.3686L145.789 92.2914L146.072 92.2398H146.639L149.241 92.5747L152.151 92.3686L153.259 92.4717L153.517 92.4459L153.748 92.3429L153.877 92.1368L153.98 91.8792L154.032 91.5959L154.058 91.2095L154.032 90.7458L153.929 89.9215L153.8 89.4578L153.62 89.0457L153.285 88.4532L153.208 88.1183L153.259 87.7319L153.388 87.088L153.311 86.6758V86.6243L152.383 85.3621L151.301 83.5332L150.992 83.1725L150.039 82.2194L149.833 81.9361L149.704 81.6527L149.653 81.3951L149.627 81.086L149.885 79.3344V78.7162L149.807 78.0979L149.833 77.7888L150.065 77.4797L150.322 77.3251L150.632 77.2221L151.095 77.1191L151.25 77.0418L151.456 76.8615L152.332 75.5477L152.795 75.0326L153.336 74.5431L153.645 74.3113L153.955 74.1567L154.547 73.9249L154.83 73.7961L155.062 73.6158L155.243 73.384L155.32 73.1779L155.371 72.9976V72.74L155.346 72.5081L155.268 72.2248L155.165 71.9157L155.011 71.6323L154.805 71.349L154.547 71.0914L154.058 70.6535L153.491 70.2671L152.718 69.9322L152.641 69.7519L152.512 69.2624L152.486 68.9791L152.512 68.6957L152.538 68.4124L152.667 67.9745L152.873 67.5623L153.208 66.9956L153.517 66.6092L153.903 66.2228L154.083 66.094L154.805 65.8364L155.036 66.0168L155.294 66.3516L155.526 66.5319L155.783 66.6607L156.067 66.6865L156.376 66.5319L156.634 66.3774L157.123 65.6561L157.252 65.7334L158.308 66.4804L158.823 66.9956L159.029 67.279L159.184 67.5881L159.519 68.7988L159.673 69.1594L159.982 69.5458L160.24 69.8034L163.717 71.8126L164.258 71.9672L165.16 72.0445L165.443 72.096L165.701 72.2505L165.933 72.4566L166.705 73.384L167.865 74.5174L168.406 74.878L168.663 75.0068L169.178 75.1098L171.188 75.1614L171.729 75.2644L172.27 75.4705L173.042 75.9084L176.056 78.0722L176.34 78.201L176.623 78.304L176.906 78.3555H177.19L179.018 78.0464H179.302L179.585 78.1494L179.869 78.304L181.878 80.2875L182.187 80.8027L182.419 81.0603L182.676 81.2148L186.592 82.7861L186.746 82.8892L186.901 83.0695L187.081 83.3013L187.184 83.5589L187.261 83.8165L187.339 84.2544L187.622 102.415L187.725 103.007L187.802 103.213L187.983 103.497L188.189 103.729L192.516 106.871L195.582 109.988L196.071 110.606L196.586 111.482L197.102 112.641L197.411 113.594L197.591 115.217L197.514 118.205L194.036 146.721L190.765 172.403Z" fill="#CDCDCD" stroke="white" stroke-width="2" stroke-linecap="round" stroke-linejoin="round"/>
<path d="M212.969 68.1548L213.227 68.2579L214.489 68.6185L214.257 68.6958L214.077 68.6443L213.896 68.567L213.69 68.5155L213.484 68.5412L213.304 68.6185L213.124 68.7473L212.969 68.8761L212.866 68.7731L212.815 68.7988L212.634 68.6958V68.6185L212.815 68.5412L212.84 68.4639L212.789 68.3867L212.686 68.2836L212.557 68.2321H212.428L212.171 68.3351L212.016 68.3867L211.861 68.5412L211.733 68.7731L211.63 68.9791L211.604 68.6443L211.836 68.2836L212.196 68.026L212.557 67.9487L212.686 67.9745L212.789 68.026L212.969 68.1548ZM186.901 203.778L190.765 172.403L194.036 146.721L197.513 118.205L197.591 115.217L197.41 113.594L197.101 112.641L196.586 111.482L196.071 110.606L195.582 109.988L192.516 106.871L188.189 103.729L187.982 103.497L187.802 103.213L187.725 103.007L187.622 102.415L187.339 84.2545L187.261 83.8165L187.184 83.559L187.081 83.3014L186.901 83.0695L186.746 82.8892L186.591 82.7862L182.676 81.2148L182.418 81.0603L182.187 80.8027L181.878 80.2875L179.868 78.304L179.585 78.1495L179.302 78.0464H179.018L177.189 78.3555H176.906L176.623 78.304L176.339 78.201L176.056 78.0722L173.042 75.9084L172.269 75.4705L171.728 75.2644L171.187 75.1614L169.178 75.1099L168.663 75.0068L168.405 74.878L167.864 74.5174L166.705 73.384L165.932 72.4566L165.701 72.2506L165.443 72.096L165.16 72.0445L164.258 71.9672L163.717 71.8127L160.24 69.8034L159.982 69.5458L159.673 69.1594L159.518 68.7988L159.183 67.5881L159.029 67.279L158.823 66.9957L158.308 66.4805L157.252 65.7334L157.123 65.6562L156.968 65.4758L156.659 65.0122L156.556 64.7288L156.504 64.4455V64.2136L156.53 63.9818L156.633 63.5696L156.942 62.7969L157.2 62.3332L159.261 59.8603L159.853 58.9845L164.155 50.8445L164.876 49.7368L165.829 48.6807L167.04 47.5473L168.74 46.62L174.51 44.4304L174.665 44.2243L175.953 43.9667L178.683 44.3016L181.414 44.6365L186.282 45.2805L186.952 45.3835L187.699 46.6457L188.369 48.5004L188.42 48.861L188.472 49.608L188.601 50.0202L188.755 50.4323L188.936 50.7415L189.219 50.9991L189.477 51.2051L189.708 51.437L189.811 51.7976L194.809 51.7461L199.162 51.6946L199.445 52.0037L199.6 52.1067L199.909 52.2613L199.961 52.3643L200.064 52.9825V53.4462L199.961 53.7553L199.677 53.6523L199.626 53.7296L199.6 53.8326L199.832 53.8583L200.038 53.8068L200.192 53.678L200.27 53.4462L200.399 53.5492V53.678L200.27 53.9356L200.192 54.2963L200.167 54.4508L200.244 54.7857L200.399 55.069L201.403 56.2025L201.48 56.357L201.3 56.6146L201.223 56.8722L201.197 57.1556L201.274 57.4389L201.403 57.6707L201.79 58.2117L201.867 58.3405L201.815 58.5723L202.021 58.6754L202.434 58.8814H202.562H202.974L203.103 58.9072L203.335 59.036L203.49 59.0618L203.541 59.1133V59.1905L203.438 59.3451L203.361 59.3966L203.181 59.3451L202.974 59.4481L202.923 59.5512L202.949 59.7315L203.052 59.9118L203.309 60.1694L203.593 60.4012L203.799 60.5043L203.825 60.5558L204.082 60.9679L204.572 61.4574L204.649 61.5862L204.52 61.8695V62.0498V62.2044L204.572 62.2817L204.546 62.3847L204.443 62.5908L204.288 62.8226L204.108 62.9514L204.185 62.7969L204.211 62.6681L204.185 62.3332L204.211 62.1529L204.288 62.0241L204.34 61.921L204.288 61.715L204.108 61.921L203.902 62.4362L203.696 62.565L203.928 61.9726L203.953 61.818L203.876 61.5604H203.773L203.67 61.7665L203.438 62.7196V62.9514L203.361 63.0802L203.387 63.1575L203.515 63.1317L203.593 63.0802L203.67 62.8484L203.773 62.7453V63.3636L203.825 63.5181L203.928 63.4924L204.056 63.3893L204.108 63.2348L204.185 63.3893L204.211 63.5696L204.185 63.8015L204.34 63.853L204.469 63.8015L204.546 63.6469L204.597 63.5181L204.623 63.75L204.597 63.853L204.52 63.9045L204.597 64.0333L204.572 64.1106L204.494 64.1621H204.365L204.52 64.5485L204.237 64.394L204.108 64.4197L204.031 64.5485L204.288 64.6515H204.494L204.675 64.5227L204.778 64.2652H204.855L204.932 64.4712L204.803 64.6258L204.752 64.8834L204.803 65.1152H205.035L205.113 65.0122L205.061 64.9349L204.958 64.8319L204.932 64.7288L205.035 64.6L205.164 64.5485L205.447 64.4712L205.679 64.4455L205.86 64.5227L206.272 64.9349L206.735 65.1667L206.864 65.3213L206.607 65.5016L206.787 65.5789L206.941 65.5531L207.019 65.4758L206.941 65.2955L207.148 65.3986L207.379 65.4501L207.843 65.5016L207.946 65.4758L208.152 65.347L208.255 65.2955L208.384 65.3213L208.616 65.3986H208.745L209.002 65.4758L209.182 65.6562L209.466 66.0683L209.543 66.1456L209.723 66.2486L209.801 66.3517L209.826 66.4547L209.852 66.7123L209.878 66.8153H209.723L209.646 66.7638L209.62 66.635L209.646 66.4547H209.543L209.286 66.7638L208.616 66.6865L208.384 66.9184H208.281L208.204 66.6865H207.998L207.534 66.9184L207.637 66.9699L207.895 67.0472L208.049 67.0987L208.307 67.3305L208.461 67.382L208.59 67.5366H208.667L208.873 67.3305L208.951 67.2275L209.002 67.0987L209.182 67.2275L209.286 67.279L209.208 67.4851L209.079 67.5881L208.976 67.6396L208.873 67.7684L208.848 67.923L208.822 68.2579L208.796 68.4382L208.925 68.3867L209.079 68.3094L209.208 68.2063L209.337 68.1033L209.466 68.0518L209.646 68.1033L209.878 68.2321L209.801 68.5155L209.826 68.7731L209.93 69.0306L209.955 69.314L209.93 69.9065L210.007 70.1641L210.213 70.1125V70.3701L210.29 70.4732L210.419 70.4474L210.548 70.3186L210.496 70.1125L210.599 69.9837L210.78 69.958L210.96 70.1125L211.037 70.0095L211.114 70.1641L211.063 70.3186L211.011 70.4732L210.96 70.6535L210.934 70.7565L210.831 70.7823H210.677H210.548L210.651 70.9368L210.934 70.9884L211.037 71.1429L211.166 71.0914L211.243 70.9626L211.372 70.6792L211.398 70.7565L211.475 70.7823L211.346 71.0141L211.449 71.0656L211.758 70.9626L211.939 70.9884L212.274 71.1429H212.48L212.145 70.7823L212.042 70.5762L212.222 70.3959H212.377L212.609 70.5504L212.712 70.602L212.815 70.5504L213.046 70.3186L213.021 70.5247L212.892 70.8596V71.0656L212.969 71.3748L213.021 71.5551L213.098 71.6323L213.33 71.7354L213.536 71.993L214.257 73.1006L214.618 73.5385L214.721 73.6416L215.056 73.7961L215.184 73.8734L215.365 74.0537L215.468 74.1568L216.241 74.5174L216.704 74.8523L216.988 74.9038L217.271 74.878L217.58 74.9296L217.941 75.1356L218.301 75.4963L218.92 76.3206L219.126 76.7069L220.001 77.3509L220.208 77.557L220.259 77.9176L219.692 77.4282L219.409 77.2221L218.739 77.1449L218.559 77.0933L218.456 76.9388L218.353 76.4236L218.25 76.5266L218.147 76.7585L218.069 76.9645V77.2994L218.121 77.454L218.198 77.5828L218.327 77.7116L218.353 77.7888L218.301 78.6131L218.327 78.845L218.662 79.9011L218.791 80.1072L218.997 80.3133L219.203 80.4421L220.259 80.8027L220.62 81.1376L220.826 81.6012L220.929 82.2195L220.903 83.7135L220.877 84.0226L220.748 84.306L220.491 84.4605V84.2545L220.414 84.1772L220.259 84.2287L220.156 84.3575L220.233 84.7181L220.208 85.2333L220.104 85.7743L220.001 86.1349L219.821 86.0061L219.77 85.8V85.5939L219.744 85.3879L219.667 85.2333L219.538 85.1045L219.435 85.0272L219.28 84.8727L219.177 84.8469L219.151 84.4605L219.074 84.2545L218.971 84.1257L218.842 83.9711L218.662 83.8938L218.533 83.9453L218.224 84.5636L218.121 84.6409L217.992 84.7181L218.044 84.9242L218.173 85.0788L218.25 85.156L218.276 85.2591L218.379 85.4651L218.404 85.5939L218.198 85.697L218.147 85.8L218.173 86.0061L218.224 86.1864L218.25 86.3925L218.147 86.5986L218.353 86.6758L218.533 86.5728L218.61 86.3667L218.559 86.1349L218.688 86.1864L218.765 86.2379L218.92 86.4183L218.971 86.444H219.074L219.1 86.6758L219.203 86.7016L219.512 86.7789L219.641 86.9592L219.692 87.191L219.847 87.4486V87.5259L219.589 87.7835L219.718 88.4275L220.001 89.123L220.259 89.5867L220.98 90.4625L221.289 90.9777L221.418 91.6216H221.341L221.135 90.9777L221.032 90.8746L220.903 90.8489L220.723 90.7458L220.568 90.6428L220.414 90.4367L220.208 90.2822L220.053 90.2564L220.001 90.514L220.104 90.6943L220.414 90.9261L220.491 91.0807L220.594 90.8746H220.671L221.135 91.8535L222.526 93.6566L222.835 93.94L222.809 93.7597L222.732 93.5536L222.706 93.3733L222.809 93.296L222.938 93.2445L222.99 93.2703L223.041 93.5536L223.196 93.7082L223.273 93.8885L223.505 94.0173L223.917 94.1203L224.02 94.2749L224.278 94.8673L224.174 94.9704L224.329 95.1765L224.484 95.5371L224.638 95.9235L224.69 96.2068L224.664 96.3871L224.612 96.6963L224.587 96.8508L224.612 97.0311L224.741 97.2372L224.793 97.469L224.973 97.8039L224.999 98.01L224.922 98.5767L225.025 99.1176L225.128 99.4268L225.256 99.5813L225.359 99.3237L225.669 99.5813L226.003 100.019L226.158 100.225L226.364 100.431L226.596 101.333L226.905 101.539L227.137 101.771L227.24 102.286L227.266 103.11L227.317 103.265L227.42 103.497L227.549 103.729L227.678 103.832H227.884L228.141 103.574L229.017 105.068L229.61 105.712L230.228 105.995L230.949 106.098L231.645 106.073L232.289 105.867L233.113 105.197L233.139 105.326L233.757 105.223L233.886 105.3L233.989 105.429L234.092 105.506L234.221 105.403L234.246 105.506L234.221 105.635L234.169 105.738L234.015 105.841L234.04 105.995L234.143 106.15L234.092 106.588L234.169 106.665L234.375 106.588L234.556 106.459L234.89 105.867L235.071 105.686L235.225 105.583L235.303 105.429V105.12L235.483 105.223L235.715 105.248L235.895 105.274L235.972 105.454L236.05 105.635L236.178 105.661H236.384L236.565 105.764V105.867L236.359 105.97L236.101 106.047L235.895 106.15L235.792 106.382H235.766L235.483 106.691L235.431 106.794L235.354 106.974L235.303 107.052L234.581 107.592L234.427 107.824L234.272 108.03L234.221 108.159L234.195 108.288L234.169 108.597L234.143 108.7V108.958L234.092 108.983H233.963L233.886 109.035L233.86 109.318L233.886 109.473L233.937 109.524L234.684 109.602L234.968 109.524L235.122 109.447L235.225 109.344L235.328 109.293L235.509 109.267L236.333 109.421L236.539 109.602L236.9 110.014L237.441 110.168L237.518 110.684L237.492 111.018L237.466 111.894L237.544 112.229L237.724 112.538L240.326 115.939L242.232 118.411L242.876 119.261L245.426 122.559L246.688 124.207L248.594 126.68L249.264 127.53L249.496 127.736L249.805 127.839L255.163 128.535L263.638 129.668L268.738 130.364L272.139 130.802L273.813 131.034L277.213 131.497L280.588 131.935L280.768 131.909L281.566 130.853L283.344 133.79L285.302 137.087L286.95 139.818L287.079 140.127V140.41L286.564 142.11L285.894 144.248L284.915 147.468L283.653 151.512L282.983 153.65L281.077 159.807L280.072 163.001L279.738 164.134L279.042 166.375L275.101 167.766L268.841 169.982L264.668 171.476L262.582 172.223L258.409 173.691L256.322 174.438L252.123 175.906L250.037 176.653L245.864 178.122L243.777 178.869L242.412 179.332L236.591 180.157L228.76 181.29L226.802 181.548L224.87 181.831L220.955 182.398L218.997 182.681L209.208 184.072L207.637 184.278L206.504 184.716L204.211 185.901L199.78 188.168L196.122 190.048L195.839 190.254L194.886 191.439L193.778 192.83L191.872 195.278L188.858 199.038L188.652 199.451L187.261 203.314L186.901 203.778Z" fill="#CDCDCD" stroke="white" stroke-width="2" stroke-linecap="round" stroke-linejoin="round"/>
<path d="M93.9864 77.6858L94.2182 78.2525L94.2697 78.5101L94.2955 78.8707V79.1798L94.1667 79.6693L94.1152 79.8238L93.6773 80.6481L93.5227 81.0603L93.5485 81.3952L93.6773 81.6785L93.9091 81.8846L94.1667 81.9876L94.4501 82.0134L95.0425 81.9103H95.3259L95.5835 82.1422L95.7123 82.3998L95.738 82.7089L95.0683 87.2683V87.6805L95.094 88.0153L95.4804 89.5094L95.7123 90.8746L95.5835 94.4552L95.6608 94.8416L95.7896 95.1507L95.9699 95.4083L96.1502 95.6144L96.3047 95.7174L96.5108 95.8204L96.7684 95.9235L97.0518 95.9492H97.3351L97.6185 95.8977L100.658 94.8158L101.276 94.7128L102.719 94.7643L103.234 94.7128L103.492 94.6613L103.749 94.584L103.904 94.5067L104.136 94.4037L104.367 94.2233L104.599 93.9657L105.501 92.8581L105.784 92.6005L106.119 92.3944L106.531 92.2399L106.866 92.1626L108.978 92.0853L112.379 92.6263L113.435 92.9096L113.744 93.0127L115.341 93.399L115.882 93.6051L116.114 93.7597L116.32 94.043L116.397 94.3521L116.449 94.687L116.217 98.1903L116.268 98.4736L116.371 98.7828L116.603 99.1692L116.887 99.3752L117.17 99.5298L118.741 99.9677L118.947 100.071L119.102 100.174L119.308 100.56L119.514 101.075L120.158 103.6L120.39 104.166L120.544 104.398L120.75 104.604L121.807 105.403L121.832 105.867L121.678 106.459L121.523 106.845L121.472 106.897L120.905 107.644L120.725 107.953L120.647 108.159V108.365L120.673 108.468L120.828 108.906L120.853 109.215L120.802 109.731L120.596 110.761L120.441 113.028L120.467 114.264L118.87 114.032L118.097 114.084L117.84 114.187L117.582 114.367L117.427 114.625L117.376 114.882L117.402 115.166L117.711 116.042L117.762 116.325L117.788 116.608L117.762 117.201L117.685 117.536L117.505 117.87L117.196 118.386L116.887 118.669L116.603 118.901L114.439 119.854L112.842 120.756L112.301 121.168L111.941 121.554L111.812 121.889L111.889 122.172L112.095 122.404L112.353 122.61L113.692 123.331L113.898 123.538L113.976 123.821L113.847 124.207L113.615 124.465L113.332 124.619L111.915 125.135L111.58 125.366L111.194 125.676L109.494 127.376L106.016 130.132L105.552 130.699L104.677 132.064L104.342 132.399L104.058 132.528L103.775 132.553L101.895 131.961L101.611 131.935L101.225 132.012L100.71 132.322L99.4732 133.378L99.164 133.558L98.8549 133.635L98.5973 133.661H98.314L97.5154 133.532H97.4639L97.2063 133.378L97.0775 133.146L97.026 132.888L97.0518 132.631L97.1806 132.09L97.2578 131.523L97.2321 131.24L97.1806 130.956L97.0518 130.699L96.8715 130.441L96.6396 130.209L96.4078 130.055L96.0471 129.874L95.2228 129.617L94.991 129.514L94.8365 129.282L94.7849 129.024L94.8622 128.767L95.532 127.17L95.5835 126.938L95.6865 126.294L95.6608 125.882L95.6092 125.65L95.532 125.392L95.4032 125.16L95.1713 124.98L94.9137 124.903L94.6561 124.877L93.497 125.032L90.8953 125.83L89.9679 126.01L89.6846 125.882L89.5558 125.676L89.5043 125.135L89.4527 124.877L89.3239 124.645L89.0921 124.516H88.7315L87.4435 124.748L86.9541 124.774L86.5419 124.697L86.2586 124.516L85.9752 124.285L85.0221 123.151L84.0433 122.275L83.8887 122.095L83.3735 121.271L83.1417 121.039L82.8068 120.936L82.4462 120.987L81.5704 121.168L80.0506 121.296L79.6899 121.348L79.6126 120.704L79.5354 120.395L79.5096 120.163L79.3035 119.957L79.2005 119.802L79.1747 119.571L79.149 119.365L78.8914 119.519L78.7626 119.442H78.6595V119.648L78.7883 119.777L79.0975 119.88V119.983L78.6853 119.931L78.4277 119.699L78.4019 119.055L77.861 118.334L77.5776 117.433L77.5004 117.123L77.4488 116.789L77.3458 116.479L77.1655 116.248L77.0367 116.17L76.9079 116.145L76.7018 116.067L76.5988 115.939L76.5215 115.758L76.4442 115.526L76.2897 115.32L75.8775 115.217L75.723 115.114L75.5942 115.011L75.4911 114.805L75.2851 114.548L74.9759 114.341L74.7441 114.264L74.538 114.238L74.2547 114.032L74.1001 113.904L73.8425 113.697L73.6107 113.388L73.3789 113.208L73.147 113.002L72.7864 112.641L72.6061 112.59L72.3742 112.693L72.1167 112.513L71.9106 112.358L71.4211 112.023L71.0348 111.74L71.112 111.585L71.3181 111.431L71.6272 111.379L71.4984 111.25L71.3181 111.302L71.0863 111.431L71.009 111.25L71.1378 111.044L71.1893 110.812L71.0605 110.761L70.9832 110.864L70.8287 110.89L70.7514 111.018L70.8287 111.096L70.8802 111.225L70.906 111.508L70.8287 111.585L70.5453 111.482L70.1847 111.585L69.6437 111.173L69.4634 111.018L68.9998 110.632L68.871 110.349L68.7164 110.246L68.5103 110.143L68.3043 110.014L68.1239 109.859L67.8663 109.705H67.583L67.4542 109.679L67.2739 109.834L67.2224 110.014L67.2996 110.271L66.7587 110.297L66.6299 110.091L66.295 109.911L66.0117 110.014L65.7283 109.731L65.5738 109.421L65.2904 109.035L64.8525 108.674L64.7237 108.211L64.8525 107.953L64.9298 107.979L65.1874 108.133L65.2646 107.927L65.1874 107.67L64.2858 106.356L64.3115 106.279L64.4661 105.48L64.5434 105.248L64.6979 104.991L64.8783 104.785L65.1358 104.656L65.3677 104.604H66.3723L66.836 104.527L67.1193 104.45L67.4027 104.347L67.7118 104.141L67.9951 103.857L68.33 103.445L68.5876 103.162L68.871 103.007L69.1286 102.956L69.3862 102.982L69.9529 103.059L70.5453 103.085L70.8544 103.033L71.1378 102.904L71.4211 102.672L71.653 102.338L71.7818 102.08L71.8333 101.874L71.6787 97.4433L72.1167 94.3779L72.0909 94.0945L71.9879 93.8627L71.8333 93.7082L71.6787 93.6051L71.4211 93.5536L70.6484 93.5278L70.4423 93.4506L70.3393 93.399L70.2362 93.1157L69.7983 91.4671L69.4119 90.4367L69.2316 90.0761L69.0513 89.8185L68.8452 89.5351L67.2481 88.1956L67.042 87.938L66.8875 87.6805L66.7845 87.3713L66.6041 86.6501L66.4753 86.5213L66.295 86.3667L64.1055 85.1045L63.8479 85.053L63.5903 85.156L63.1266 85.5167L62.9463 85.5682L62.8433 85.4136L62.766 85.1818L62.6629 84.6151L62.4826 84.0741L61.7614 82.6316L61.6841 82.3483L61.6583 82.0649L61.6841 81.7815L61.7356 81.4982L61.9674 80.9572L62.7145 79.7208L62.7917 79.489L62.869 79.2056L62.8433 78.8707L62.7145 78.5616L62.5084 78.304L62.2508 78.1495L60.834 77.7373L60.5507 77.6343L60.2673 77.4282L60.0097 77.1964L59.8036 76.913L59.6491 76.6297L59.5203 76.3463L59.443 76.0372L59.3915 75.7281L59.3657 75.1356L59.6233 73.2809L59.6491 72.5082L59.6233 72.1733L59.443 71.3232L59.34 71.0914L59.2369 70.9368L59.0566 70.7308L58.8506 70.5762L58.6187 70.4989L58.4642 70.4732H58.2323L57.4595 70.6277L57.1762 70.602L56.9701 70.4732L56.9186 70.2413L56.9959 70.0095L57.2277 69.8034L57.4853 69.6746L58.8763 69.314L62.019 67.8199L62.2766 67.7427H62.6114L62.9978 67.8199L63.5388 68.0518L64.5691 68.6958L64.9298 68.8503L65.445 68.9534H65.7283L66.0117 68.9018L66.2693 68.8246L68.5618 67.5623H68.7679L68.9998 67.6139L69.3089 67.8715L69.4892 68.1033L69.5922 68.3351L69.9529 69.5973L70.1847 70.1641L70.4165 70.6277L71.112 71.6581L71.3696 71.9157L71.7303 72.096L72.2454 72.199L73.4819 72.2506L73.7653 72.2763L73.9971 72.3794L74.2032 72.5339L74.332 72.74L74.3577 72.8945L74.332 73.1264L74.3577 73.3325L74.4608 73.59L74.6411 73.7961L75.3881 74.2856L75.5942 74.5174L75.6972 74.775V75.0326L75.6457 75.3159V75.5993L75.7745 75.8054L76.0063 75.8826L76.3927 75.7796L76.7276 75.5735L77.8095 74.6977L77.9898 74.6204L78.2474 74.5689L78.5307 74.5947L78.9429 74.6977L79.8445 75.1356L80.1536 75.2387L80.4369 75.2644L80.7461 75.1099L80.7976 74.9038L80.7718 74.6462L80.6945 74.3628L80.7203 74.131L80.8749 73.9764L81.1067 74.0022L81.39 74.234L81.5188 74.5174L81.7249 75.0583L82.0083 75.3159L82.4204 75.5478L83.966 76.1145L85.4343 77.2479L85.8979 77.4024L86.5162 77.4797H87.7526L92.8015 76.6812L93.0848 76.7069L93.3682 76.8873L93.5742 77.0676L93.9864 77.6858Z" fill="#CDCDCD" stroke="white" stroke-width="2" stroke-linecap="round" stroke-linejoin="round"/>
<path d="M152.718 69.9322L153.491 70.2671L154.057 70.6535L154.547 71.0914L154.804 71.349L155.01 71.6324L155.165 71.9157L155.268 72.2248L155.345 72.5082L155.371 72.74V72.9976L155.32 73.1779L155.242 73.384L155.062 73.6158L154.83 73.7961L154.547 73.9249L153.954 74.1568L153.645 74.3113L153.336 74.5432L152.795 75.0326L152.331 75.5478L151.456 76.8615L151.25 77.0418L151.095 77.1191L150.631 77.2221L150.322 77.3252L150.065 77.4797L149.833 77.7889L149.807 78.098L149.884 78.7162V79.3344L149.627 81.0861L149.652 81.3952L149.704 81.6528L149.833 81.9361L150.039 82.2195L150.992 83.1726L151.301 83.5332L152.383 85.3621L153.31 86.6243V86.6759L153.388 87.088L153.259 87.732L153.207 88.1184L153.285 88.4533L153.619 89.0457L153.8 89.4579L153.929 89.9215L154.032 90.7458L154.057 91.2095L154.032 91.5959L153.98 91.8793L153.877 92.1368L153.748 92.3429L153.516 92.446L153.259 92.4717L152.151 92.3687L149.24 92.5748L146.639 92.2399H146.072L145.789 92.2914L145.531 92.3687L145.299 92.4975L145.093 92.6263L144.939 92.7551L144.732 92.9612L144.398 93.4248L143.96 94.3264L143.728 94.7128L143.47 94.9704L142.594 95.5371L141.925 96.1553L141.641 96.3871L141.152 96.619L137.056 97.5721L136.773 97.7266L136.489 97.9327L135.33 99.0919L134.145 100.689L133.965 101.05L133.913 101.384L133.965 101.642L134.094 101.925L134.403 102.466L134.506 102.801L134.48 103.162L134.3 103.651L134.042 103.986L133.759 104.244L133.45 104.373L133.218 104.45H132.96L132.007 104.166L131.441 104.141L129.715 104.398L129.096 104.424L126.881 104.192L126.031 103.96L125.49 103.754L124.176 103.11L123.919 103.059L123.635 103.085L123.352 103.239L123.017 103.497L122.863 103.651L122.038 104.888L121.807 105.403L120.75 104.604L120.544 104.398L120.39 104.166L120.158 103.6L119.514 101.075L119.308 100.56L119.102 100.174L118.947 100.071L118.741 99.9677L117.17 99.5298L116.887 99.3752L116.603 99.1692L116.371 98.7828L116.268 98.4737L116.217 98.1903L116.449 94.687L116.397 94.3522L116.32 94.043L116.114 93.7597L115.882 93.6051L115.341 93.3991L113.744 93.0127L113.435 92.9096L113.924 92.4717L114.414 92.3172L115.135 92.2399L115.547 92.1111L117.505 91.055L117.968 90.8489L118.355 90.7458L119.54 90.617L119.823 90.5398L120.029 90.3594L120.106 90.1276L120.055 89.9215L120.003 89.7412L119.411 88.6851L119.334 88.376L119.308 88.0926L119.385 87.7835L119.54 87.4744L119.849 87.1395L120.132 87.0107L120.39 86.9592L120.596 87.0365L121.575 87.3971L121.858 87.4744H122.141L122.373 87.3971L122.528 87.191L122.554 86.9592V86.6243L122.322 85.5167L122.296 85.2591L122.322 84.9757L122.373 84.6924L122.579 84.1257L122.837 83.559L123.017 83.3271L123.275 83.2241L123.532 83.1983L123.816 83.2498L124.125 83.2241L124.692 83.0695L124.949 82.9407L125.104 82.7089L125.181 82.3998L125.387 81.9361L125.748 81.3179L127.165 79.6693L130.384 77.0676L131.853 76.1145L134.635 74.9038L135.073 74.6204L135.33 74.3113L135.511 74.0022L136 72.8946L136.438 72.3536L137.03 71.7612L137.932 71.1687L142.569 68.7988L143.161 68.567L143.47 68.4897L143.728 68.4639L144.011 68.5155L144.295 68.6185L144.578 68.7731L145.016 69.1595L145.892 70.0868L147.437 71.349L147.978 71.6839L148.287 71.7869L149.549 71.8384L150.374 72.0187H150.631L150.889 71.9672L151.095 71.8384L151.25 71.7096L152.203 70.3959L152.718 69.9322Z" fill="#CDCDCD" stroke="white" stroke-width="2" stroke-linecap="round" stroke-linejoin="round"/>
<path d="M154.805 65.8364L154.083 66.094L153.903 66.2228L153.517 66.6092L153.208 66.9956L152.873 67.5623L152.667 67.9745L152.538 68.4124L152.512 68.6957L152.486 68.9791L152.512 69.2624L152.641 69.7518L152.718 69.9322L152.203 70.3958L151.25 71.7096L151.095 71.8384L150.889 71.9672L150.632 72.0187H150.374L149.55 71.8384L148.287 71.7868L147.978 71.6838L147.437 71.3489L145.892 70.0867L145.016 69.1594L144.578 68.773L144.295 68.6184L144.011 68.5154L143.728 68.4639L143.47 68.4896L143.161 68.5669L142.569 68.7988L137.932 71.1686L137.031 71.7611L136.438 72.3536L136 72.8945L135.511 74.0022L135.331 74.3113L135.073 74.6204L134.635 74.9037L131.853 76.1144L130.385 77.0675L127.165 79.6692L125.748 81.3178L125.387 81.9361L125.181 82.3997L125.104 82.7088L124.949 82.9407L124.692 83.0695L124.125 83.224L123.816 83.2498L123.533 83.1983L123.275 83.224L123.018 83.3271L122.837 83.5589L122.58 84.1256L122.374 84.6923L122.322 84.9757L122.296 85.259L122.322 85.5166L122.554 86.6243V86.9591L122.528 87.191L122.374 87.397L122.142 87.4743H121.858L121.575 87.397L120.596 87.0364L120.39 86.9591L120.132 87.0107L119.849 87.1395L119.54 87.4743L119.385 87.7834L119.308 88.0926L119.334 88.3759L119.411 88.685L120.004 89.7412L120.055 89.9215L120.107 90.1275L120.029 90.3594L119.823 90.5397L119.54 90.617L118.355 90.7458L117.969 90.8488L117.505 91.0549L115.547 92.111L115.135 92.2398L114.414 92.3171L113.924 92.4717L113.435 92.9096L112.379 92.6262L108.979 92.0853L106.866 92.1625L106.531 92.2398L106.119 92.3944L105.784 92.6005L105.501 92.858L104.6 93.9657L104.368 94.2233L104.136 94.4036L103.904 94.5066L103.749 94.5839L103.492 94.6612L103.234 94.7127L102.719 94.7642L101.277 94.7127L100.658 94.8158L97.6187 95.8977L97.3354 95.9492H97.052L96.7687 95.9234L96.5111 95.8204L96.305 95.7173L96.1504 95.6143L95.9701 95.4082L95.7898 95.1506L95.661 94.8415L95.5837 94.4551L95.7125 90.8746L95.4807 89.5093L95.0943 88.0153L95.0685 87.6804V87.2683L95.7383 82.7088L95.7125 82.3997L95.5837 82.1421L95.3261 81.9103H95.0428L94.4503 82.0133L94.167 81.9876L93.9094 81.8845L93.6775 81.6785L93.5487 81.3951L93.523 81.0602L93.6775 80.6481L94.1154 79.8238L94.167 79.6692L94.2958 79.1798V78.8707L94.27 78.51L94.2185 78.2525L93.9866 77.6858L94.167 77.5312L94.373 77.2478L94.6049 76.8099L95.3261 74.5946L95.6868 73.8476L96.2277 73.1006L97.7218 71.7868L97.9794 71.5292L98.1597 71.2459L98.2627 70.9883L98.3142 70.6792L98.2627 70.3958L97.9794 70.0867L97.7218 69.8549L96.2277 69.0563L95.764 68.7215L95.5837 68.5412L95.3777 68.2836L95.2489 68.026L93.9351 62.6165L93.8063 62.3074L93.6518 62.024L92.9305 61.3028L91.488 60.1178L90.741 59.7572L90.3803 59.4996L90.097 59.242L90.0712 59.1647L89.7879 58.8556L89.3242 58.598L88.6802 58.3404L84.739 57.4131L84.4557 57.2843L84.2496 57.1813L84.0435 56.8721L85.3572 55.4039L85.6406 55.1978L85.9497 55.0175L90.5606 52.8022L92.6987 52.2097L97.2066 49.608L101.843 47.7018L102.101 47.676L102.874 47.8563L104.265 48.4488L104.986 48.6549H105.269L111.735 47.1351L112.611 47.032H113.126L113.512 47.1093L116.475 48.0882L116.913 48.1397L117.247 48.1655L117.557 48.1139L119.025 47.7275L120.339 47.6503H120.648L124.821 48.6291L125.387 48.861L125.671 49.0413L125.928 49.2731L127.422 51.0505L127.783 51.3596L128.195 51.6172L128.788 51.8491L129.251 51.9263L129.638 51.9006L129.998 51.7975L130.359 51.6687L131.338 51.1278L131.673 50.9732L132.033 50.896H132.471L132.703 51.0248L132.832 51.1536L132.858 51.2823L132.909 52.3127L132.935 52.493L133.012 52.8022L133.218 53.2143L133.502 53.5234L133.914 53.8068L134.249 53.9098L134.583 53.9356L135.794 53.8068L136.206 53.8583L136.541 53.9613L137.829 54.6311L138.319 54.7856L138.628 54.8371L138.911 54.7856L139.4 54.5538L140.817 53.6265L141.152 53.4719L141.59 53.4461L141.899 53.5749L142.183 53.781L142.389 54.0644L144.449 57.7995L145.48 60.53L145.918 61.1224L146.201 61.4058L146.536 61.6634L146.948 61.8695L147.283 61.9725L151.044 62.5392L151.456 62.7195L152.023 63.0286L152.306 63.209L154.315 65.0379L154.624 65.4243L154.805 65.8364Z" fill="#CDCDCD" stroke="white" stroke-width="2" stroke-linecap="round" stroke-linejoin="round"/>
<path d="M59.6233 93.837L59.7264 94.0946L59.8809 94.043L59.9582 94.5067L60.087 94.6097L60.0612 94.6613L59.9582 94.6355L59.9067 94.7643L59.6748 94.6097L59.5976 94.4552L59.6233 94.3779L59.4945 94.3521L59.3657 94.4037L59.2627 94.3006L59.2112 94.0946H59.1081L58.9793 94.1976L58.9536 94.0946L59.0309 93.8627L59.1597 93.7082H59.2885L59.4688 93.7339L59.6233 93.837ZM57.4595 93.9658L57.6914 94.0688L58.1293 94.2749L58.3354 94.3264H58.4899L58.593 94.4037L58.6445 94.5067H58.3869L58.3611 94.687L58.4642 94.8416L58.593 94.8158L58.7475 94.6355L58.9278 94.5067H59.1081L59.1597 94.5582L58.9278 94.687L58.8248 94.7643L58.696 94.9189L58.593 95.1507L58.3869 95.2795L58.1293 95.1249L57.9232 94.8673L57.6914 94.687L57.1762 94.1203L57.1247 94.043L57.1762 93.9658L57.1504 93.8885L57.0216 93.7597L56.8928 93.5536V93.4506L57.0216 93.5021L57.1504 93.6051L57.3565 93.8627L57.4595 93.9658ZM57.8459 92.9096L57.7944 92.9611L57.6656 92.9354L57.5111 92.7808L57.5368 92.5748L57.6914 92.4717L57.8717 92.4975L58.0005 92.6263V92.7808L57.8459 92.9096ZM56.2746 92.5232L56.8671 92.9354L56.9443 93.0384L56.9959 93.193L57.2019 93.296L57.3823 93.3733L57.6656 93.5536L58.1035 93.9142L58.2066 94.043L58.1808 94.0688L58.0778 94.1461L57.8974 93.9915L57.7429 93.8885L57.6141 93.8627L57.4853 93.6309L57.3823 93.5794L57.305 93.6051L57.2019 93.5794L57.0731 93.4506L56.9443 93.3475L56.8413 93.3218L56.764 93.2187V93.0899L56.661 93.0384L56.4807 93.0127V92.9354L56.3776 92.7808L56.1973 92.652L55.9655 92.6778L55.8367 92.7808L55.7337 92.8066V92.6778L55.8625 92.4975L56.0428 92.446L56.2746 92.5232ZM58.7475 92.2656L58.7218 92.3687L58.5672 92.3429L58.593 92.446L58.5672 92.4717L58.6445 92.6778L58.7475 93.0384L58.696 93.1415L58.5414 92.9354L58.4642 92.8839L58.4126 92.7551L58.3869 92.1111L58.4642 92.008L58.5672 91.9565L58.6702 92.008L58.7475 92.1626V92.2656ZM54.3684 91.7247L54.7033 92.0596L54.8578 92.1626L55.0124 92.1884L55.1154 92.1626L55.1927 92.3944L55.3215 92.446L55.3988 92.4202L55.4761 92.2914L55.5791 92.3172L55.7594 92.4202L55.7337 92.5232L55.6564 92.6778L55.5791 92.7293L55.4761 92.7035L55.3215 92.5748L54.3426 92.0853L54.0851 92.008L54.0078 92.2141L53.879 92.1368L53.6471 91.905L53.4926 91.7247L53.4153 91.4413L53.5183 91.2095L53.8275 90.9004L53.9563 90.7201L54.0593 90.6686L54.0851 90.7458L54.0078 90.9004L53.8017 91.2095V91.3383L53.9047 91.4413L53.982 91.5186L54.1108 91.5444L54.1881 91.6217L54.3684 91.7247ZM54.6002 90.514L54.7033 90.5913L54.8321 90.5398L54.8836 90.5655L54.8063 90.6943L54.6775 90.7458L54.523 90.7201L54.2911 90.514L54.1623 90.4367L54.0593 90.2822L54.0078 89.87L54.0335 89.3291L54.2396 88.8396L54.5487 88.5563L54.3426 88.8912L54.2396 89.123L54.1881 89.4063L54.2911 89.6382L54.5487 89.87L54.7033 89.9215V89.9988L54.6002 90.1791L54.5745 90.3594L54.6002 90.514ZM84.0433 56.8722L84.2493 57.1813L84.4554 57.2844L84.7388 57.4131L88.68 58.3405L89.3239 58.5981L89.7876 58.8557L90.071 59.1648L90.0967 59.2421L90.3801 59.4997L90.7407 59.7573L91.4877 60.1179L92.9303 61.3028L93.6515 62.0241L93.8061 62.3074L93.9349 62.6166L95.2486 68.026L95.3774 68.2836L95.5835 68.5412L95.7638 68.7215L96.2275 69.0564L97.7215 69.8549L97.9791 70.0868L98.2625 70.3959L98.314 70.6792L98.2625 70.9884L98.1594 71.246L97.9791 71.5293L97.7215 71.7869L96.2275 73.1006L95.6865 73.8477L95.3259 74.5947L94.6046 76.81L94.3728 77.2479L94.1667 77.5313L93.9864 77.6858L93.5742 77.0676L93.3682 76.8873L93.0848 76.7069L92.8015 76.6812L87.7526 77.4797H86.5162L85.8979 77.4025L85.4343 77.2479L83.966 76.1145L82.4204 75.5478L82.0083 75.3159L81.7249 75.0583L81.5188 74.5174L81.39 74.234L81.1067 74.0022L80.8748 73.9764L80.7203 74.131L80.6945 74.3628L80.7718 74.6462L80.7976 74.9038L80.7461 75.1099L80.4369 75.2644L80.1536 75.2387L79.8445 75.1356L78.9429 74.6977L78.5307 74.5947L78.2474 74.5689L77.9898 74.6204L77.8095 74.6977L76.7276 75.5735L76.3927 75.7796L76.0063 75.8827L75.7745 75.8054L75.6457 75.5993V75.3159L75.6972 75.0326V74.775L75.5942 74.5174L75.3881 74.2856L74.6411 73.7961L74.4608 73.5901L74.3577 73.3325L74.332 73.1264L74.3577 72.8946L74.332 72.74L74.2032 72.5339L73.9971 72.3794L73.7652 72.2763L73.4819 72.2506L72.2454 72.1991L71.7303 72.096L71.3696 71.9157L71.112 71.6581L70.4165 70.6277L70.1847 70.1641L69.9529 69.5973L69.5922 68.3351L69.4892 68.1033L69.3089 67.8715L68.9998 67.6139L68.7679 67.5624H68.5618L66.2693 68.8246L66.0117 68.9018L65.7283 68.9534H65.445L64.9298 68.8503L64.5691 68.6958L63.5388 68.0518L62.9978 67.82L62.6114 67.7427H62.2766L62.019 67.82L58.8763 69.314L57.4853 69.6746L57.2277 69.8034L56.9959 70.0095L56.9186 70.2413L56.9701 70.4732L57.1762 70.602L57.4595 70.6277L58.2323 70.4732H58.4642L58.6187 70.4989L58.8505 70.5762L59.0566 70.7308L59.2369 70.9368L59.34 71.0914L59.443 71.3232L59.6233 72.1733L59.6491 72.5082L59.6233 73.281L59.3657 75.1356L59.3915 75.7281L59.443 76.0372L59.5203 76.3463L59.6491 76.6297L59.8036 76.913L60.0097 77.1964L60.2673 77.4282L60.5507 77.6343L60.834 77.7373L62.2508 78.1495L62.5084 78.304L62.7145 78.5616L62.8433 78.8707L62.869 79.2056L62.7917 79.489L62.7145 79.7208L61.9674 80.9573L61.7356 81.4982L61.6841 81.7816L61.6583 82.0649L61.6841 82.3483L61.7614 82.6316L62.4826 84.0741L62.6629 84.6151L62.766 85.1818L62.8433 85.4136L62.9463 85.5682L63.1266 85.5167L63.5903 85.156L63.8479 85.053L64.1055 85.1045L66.295 86.3667L66.4753 86.5213L66.6041 86.6501L66.7844 87.3713L66.8875 87.6805L67.042 87.9381L67.2481 88.1957L68.8452 89.5351L69.0513 89.8185L69.2316 90.0761L69.4119 90.4367L69.7983 91.4671L70.2362 93.1157L70.3392 93.3991L70.4423 93.4506L70.6484 93.5279L71.4211 93.5536L71.6787 93.6051L71.8333 93.7082L71.9879 93.8627L72.0909 94.0946L72.1166 94.3779L71.6787 97.4433L71.8333 101.874L71.7818 102.08L71.653 102.338L71.4211 102.672L71.1378 102.904L70.8544 103.033L70.5453 103.085L69.9529 103.059L69.3861 102.982L69.1286 102.956L68.871 103.007L68.5876 103.162L68.33 103.445L67.9951 103.857L67.7118 104.141L67.4027 104.347L67.1193 104.45L66.836 104.527L66.3723 104.604H65.3677L65.1358 104.656L64.8783 104.785L64.6979 104.991L64.5434 105.248L64.4661 105.48L64.3115 106.279L64.2858 106.356L63.513 105.223L62.766 104.166L62.4053 103.703V103.316L62.4311 103.239L62.4569 103.085L62.4311 102.956L62.4053 102.879L62.3023 102.827L62.1478 102.982L62.019 103.007L61.8129 102.879L61.6583 102.647L61.4265 102.183H61.7356L62.019 102.235H62.3023L62.6114 102.131L62.766 101.9V101.23L63.0493 100.663L62.9978 100.354L62.766 99.7874L62.6887 99.4525L62.766 98.654L62.7402 98.3706L62.6887 98.0615L62.5857 97.8039L62.4311 97.5463L62.1993 97.263L62.0705 97.1342L61.9417 97.0569L61.8129 96.9281L61.7098 96.6963L61.6068 96.5932L61.3492 96.3871L61.1174 96.1295L60.9113 95.8204L60.7567 95.5113L60.731 95.3825L60.7052 95.0734L60.6795 94.9704L60.6022 94.8416L60.4219 94.6355L60.3446 94.5067L60.5764 94.3521L60.3961 94.043L59.8552 93.4763L59.7521 93.3218L59.5461 92.7293L59.4945 92.652L59.3142 92.5232L59.2627 92.446L59.2369 92.3687L59.2627 92.2141L59.1081 91.9823L58.9278 91.5701L58.8505 91.4413L58.696 91.3125L58.3354 91.158L58.1808 91.0807L57.6914 90.3079L57.3823 89.9215L57.1247 89.8958L57.0989 90.0503L57.1762 90.2049L57.2277 90.3337L57.0989 90.411L56.9443 90.3852L56.558 90.1018L56.3776 90.0503L56.2746 89.973L55.9913 89.6124L55.914 89.4836L55.8882 89.4063L55.914 89.123L55.8882 89.0457L55.7337 88.9942L55.6564 88.9427L55.5276 88.582L55.5018 88.2729L55.6049 87.9638L55.8625 87.6805L56.0428 87.3971L56.0685 87.0107L56.017 86.6501L55.914 86.3152L55.6306 86.0061L55.2442 85.8L54.8063 85.697L54.3942 85.6712L53.9563 85.5167L53.6729 85.1303L52.9001 83.2756L52.6168 82.7862L52.1016 82.0649L51.2 79.8496L50.2211 78.098L49.6287 77.3509L48.9332 76.7069L48.5983 76.3463L48.418 75.7539L48.0574 75.1099L47.7998 74.2598L47.5937 74.3113L47.4134 74.1568L47.13 73.6931L46.3315 72.9718L45.3526 71.7096L45.0177 71.0399L44.9662 70.9111V70.7823L44.992 70.6792L45.095 70.4732L45.1465 70.3444L45.0693 70.1898L44.7859 69.7519L43.7555 68.5155L43.1888 68.1291L43.0343 67.9745L42.7509 67.6139L42.416 67.0729L42.0554 66.7123L41.566 65.8622L41.4372 65.5016L41.4114 65.2183L41.3857 64.7288L41.3084 64.4712L41.2053 64.2909L40.819 63.853L40.5871 63.4924L40.278 62.6423L40.0204 62.2817L39.9174 62.2044L39.6598 62.1014L39.5825 62.0498L39.5052 61.9468L39.4537 61.7665L39.3249 61.5089L39.2734 61.0967L39.1446 60.9164L38.5264 60.1952L38.3203 59.8603L38.2173 59.7315L38.0112 59.6285L37.4187 59.1648V59.2678H37.3414L37.2126 59.0617L37.3672 58.933L37.6505 58.8042L37.8566 58.6754L37.9854 58.7526L37.9597 58.6754L37.8566 58.4435L37.7793 58.4178L37.4445 58.3405L37.3414 58.3147H37.2642V58.392H37.1869L37.0581 58.2117L36.9808 58.1344L36.8778 58.1087L36.6717 58.1344L36.5687 58.1087L36.4141 57.9541L35.8474 57.5419L35.7186 57.645L35.461 57.6192L35.4868 57.6965L35.461 57.7738L35.3322 57.6707L35.1776 57.6192L35.0488 57.6965L34.92 57.7738L34.5594 57.8768L34.4564 57.9283L34.3791 58.0056L34.3276 58.1087H34.2503V58.0314H34.173L33.9927 58.0571L33.7609 58.0056L33.5033 58.0314L33.3487 58.2117L33.2972 58.1344L33.2457 58.1087V58.0314H33.3487V57.9283L33.2972 57.8253L33.3487 57.748L33.5806 57.645L33.4775 57.5935L33.3487 57.5677L33.2199 57.5935L33.0911 57.645V57.748H33.1684V57.8253L33.0396 57.8768L32.9366 57.9799L32.8335 58.2117L32.782 58.1602L32.679 58.1087L32.782 57.9541L32.8851 57.8768L33.0139 57.8253V57.645H32.8335L32.7047 57.6707L32.6017 57.748L32.5759 57.9283L32.5244 57.8768L32.4214 57.9283V57.748H32.3441V57.8253H32.2411L32.1896 57.7223L32.138 57.645H32.0608L32.0092 57.748L31.8804 57.645L31.7516 57.4389L31.6744 57.2586L31.5456 57.3874L31.494 57.4389L31.3395 57.3359L31.288 57.3874V57.5419L31.2365 57.645L30.9789 57.7738L30.9016 57.8253V57.9283L31.1592 58.1087V58.2117H31.0819L31.0046 58.3147L30.9016 58.2117L30.8501 58.4435V58.6238L30.747 58.7526L30.4894 58.7784L30.5152 58.7269L30.5925 58.6754L30.4894 58.5981L30.4379 58.392L30.4122 58.2117V57.8768L30.3091 57.7738L30.0258 57.9026L30.0773 57.748L30 57.645L30.1803 57.3874L30.2834 57.2844L30.4122 57.2328V57.1556L30.4894 57.1298L30.6697 56.9752L30.5925 56.8722L30.6697 56.7434L30.8243 56.6919L30.8501 56.8464L30.9531 56.8722L31.0304 56.8464L31.0819 56.6919H31.0046V56.5888L30.9273 56.5116V56.4085L31.0304 56.357L31.1592 56.3055V56.2025L31.1334 56.0994L31.2365 55.4554L31.3652 55.507H31.4168V55.3524L31.3137 55.4297L31.2365 55.3524L31.494 55.1206L31.7259 54.6569L31.932 54.1675L32.0608 53.4977L32.2926 53.1371L32.3699 52.7249L32.4729 52.4931L32.8078 51.9006L32.7305 51.2566L32.7047 50.6127L32.4987 49.9687L32.7305 49.1186L32.8851 48.6807L33.0911 48.3201V48.217H33.0139L33.2199 47.8564L33.2457 47.7018L33.1684 47.5473V47.4443L33.323 47.0321L33.2972 46.9033L34.3276 46.8775L34.7397 46.8003L35.1776 46.826L36.1565 47.0579L37.9081 47.2382L38.1915 47.1867L38.4233 47.0579L38.8355 46.6715L39.2476 46.4396L39.7628 46.2851L42.2872 45.7956L43.9101 45.6926L44.8632 45.5123H45.6617L48.0316 46.1048L48.3407 46.2593L48.8817 46.62L49.268 46.9806L52.4107 51.1021L52.488 51.1794L52.591 51.2309L53.0804 51.4112H53.3896H53.5699L54.9094 50.896L57.8459 50.252H58.8248L59.5203 50.3551L61.375 50.9733L62.3796 51.1794L64.4919 51.3082L64.8267 51.2309L65.1101 51.0763L65.3162 50.8445L65.4707 50.5611L65.9344 49.2989L66.0889 48.9898L66.2693 48.7322L66.5269 48.5004L67.3512 47.9852L68.0982 47.2639L68.3558 47.1609L68.6391 47.2124L68.8452 47.3927L68.9998 47.6761L69.0513 47.9852L68.9225 50.2263L68.974 51.4627L69.0513 52.2613L69.1801 52.8537L69.3604 53.3174L69.5149 53.6008L69.6953 53.9099L69.9271 54.1675L70.7256 54.8372L71.2923 55.1721L72.6318 55.6357L73.3789 55.7903L75.826 56.0479L76.2639 56.0221L76.6761 55.8933L76.9852 55.7388L77.3973 55.6357L77.6807 55.6873L78.0928 55.9449L78.3504 56.0479H78.5565H79.0975L79.4581 56.8722L79.6384 57.0783L79.896 57.2586L80.2051 57.3101L80.4885 57.2586L80.7976 57.1298L82.0855 56.4858L82.4462 56.3828L82.8583 56.3313H83.1674L83.3735 56.4085L83.5538 56.4858L84.0433 56.8722Z" fill="#CDCDCD" stroke="white" stroke-width="2" stroke-linecap="round" stroke-linejoin="round"/>
<path d="M174.665 44.2243L174.511 44.4304L168.74 46.6199L167.04 47.5473L165.83 48.6807L164.877 49.7368L164.155 50.8445L159.853 58.9844L159.261 59.8603L157.2 62.3332L156.943 62.7968L156.634 63.5696L156.531 63.9818L156.505 64.2136V64.4454L156.556 64.7288L156.659 65.0121L156.968 65.4758L157.123 65.6561L156.634 66.3774L156.376 66.5319L156.067 66.6865L155.783 66.6607L155.526 66.5319L155.294 66.3516L155.036 66.0168L154.805 65.8364L154.624 65.4243L154.315 65.0379L152.306 63.209L152.023 63.0287L151.456 62.7196L151.044 62.5392L147.283 61.9725L146.948 61.8695L146.536 61.6634L146.201 61.4058L145.918 61.1225L145.48 60.53L144.449 57.7995L142.389 54.0644L142.183 53.781L141.899 53.575L141.59 53.4462L141.152 53.4719L140.817 53.6265L139.4 54.5538L138.911 54.7857L138.628 54.8372L138.319 54.7857L137.829 54.6311L136.541 53.9614L136.206 53.8583L135.794 53.8068L134.583 53.9356L134.249 53.9098L133.914 53.8068L133.502 53.5234L133.218 53.2143L133.012 52.8022L132.935 52.4931L132.909 52.3128L132.858 51.2824L132.832 51.1536L132.703 51.0248L132.471 50.896H132.033L131.673 50.9733L131.338 51.1278L130.359 51.6688L129.998 51.7976L129.638 51.9006L129.251 51.9264L128.788 51.8491L128.195 51.6172L127.783 51.3597L127.422 51.0505L125.928 49.2731L125.671 49.0413L125.387 48.861L124.821 48.6292L120.648 47.6503H120.339L119.025 47.7276L117.557 48.114L117.247 48.1655L116.913 48.1397L116.475 48.0882L113.512 47.1094L113.126 47.0321H112.611L111.735 47.1351L105.269 48.6549H104.986L104.265 48.4488L102.874 47.8564L104.6 46.1563L104.806 45.8471L104.909 45.5895L104.986 45.3062L105.295 40.6437L105.347 40.3346L105.424 40.0255L105.604 39.7422L105.836 39.4588L106.145 39.1754L107.459 38.1451L117.66 31.7567L118.664 30.9582L119.205 30.3915L119.411 30.0824L119.488 29.8248L119.385 29.5414L119.179 29.2838L117.35 27.8671L116.758 27.2746L116.526 26.9655L116.191 26.3473L115.625 25.0593L115.47 24.8275L115.161 24.4411L114.929 24.1835L114.465 23.9001L114.105 23.7713L112.662 23.5652H111.683L111.014 23.4622L110.601 23.3334L110.267 23.1531L107.845 21.1954L107.459 21.0151L106.969 20.8863H105.784L105.037 20.9893L98.3658 20.8347L97.2323 20.5772L96.8202 20.4226L96.4853 20.2423L95.6095 19.4437L95.3261 19.2377L95.017 19.0573L94.6306 18.9543L86.3619 17.6663L84.739 17.6406L81.0039 18.2073L75.5687 18.7482L74.9762 18.6967L74.4353 18.5937L74.1519 18.4649L73.8943 18.3103L73.6367 18.0785L73.4049 17.8209L72.9927 17.0739L72.7867 16.5844L72.426 15.9662L72.0139 15.3995L71.6532 15.0389L70.5971 14.2661L70.4168 14.0085L70.3137 13.7767L70.288 13.5964L70.2107 13.1327L70.1334 12.2569L70.185 11.7674L71.6532 6.30644L76.7021 4.83815L83.5798 2.82892L84.0178 2.6486L85.4603 1.25759L85.6921 1.07728L85.9497 1L88.3711 1.41215L93.1881 2.23645L96.5884 2.82892L100.761 3.62746L101.405 3.88505L102.101 4.2972L104.419 5.68821L105.475 6.3322L107.639 7.62017L110.833 9.52637L114.053 11.4583L118.329 14.0085L121.575 15.9405L122.374 16.636L125.465 19.3407L126.495 20.2423L129.973 23.2561L131.132 24.2608L133.502 26.1927L135.64 27.9701L138.113 29.9793L142.311 33.4053L143.702 34.5388L147.901 37.939L150.219 39.8452L151.404 40.7725L152.564 41.7256L153.491 42.4727L153.8 42.6015L161.322 43.2712L162.558 43.4L173.815 44.4046L174.665 44.2243Z" fill="#CDCDCD" stroke="white" stroke-width="2" stroke-linecap="round" stroke-linejoin="round"/>
<path d="M102.873 47.8564L102.101 47.676L101.843 47.7018L97.2063 49.608L92.6984 52.2097L90.5604 52.8022L85.9494 55.0175L85.6403 55.1978L85.357 55.4039L84.0433 56.8722L83.5538 56.4858L83.3735 56.4085L83.1674 56.3312H82.8583L82.4462 56.3827L82.0855 56.4858L80.7976 57.1298L80.4885 57.2585L80.2051 57.3101L79.896 57.2585L79.6384 57.0782L79.4581 56.8722L79.0974 56.0479H78.5565H78.3504L78.0928 55.9448L77.6807 55.6872L77.3973 55.6357L76.9852 55.7387L76.6761 55.8933L76.2639 56.0221L75.826 56.0479L73.3789 55.7903L72.6318 55.6357L71.2923 55.172L70.7256 54.8372L69.9271 54.1674L69.6953 53.9098L69.5149 53.6007L69.3604 53.3174L69.1801 52.8537L69.0513 52.2612L68.974 51.4627L68.9225 50.2262L69.0513 47.9852L68.9998 47.676L68.8452 47.3927L68.6391 47.2124L68.3558 47.1609L68.0982 47.2639L67.3512 47.9852L66.5268 48.5003L66.2693 48.7322L66.0889 48.9898L65.9344 49.2989L65.4707 50.5611L65.3162 50.8445L65.1101 51.0763L64.8267 51.2309L64.4919 51.3081L62.3796 51.1793L61.375 50.9733L59.5203 50.355L58.8248 50.252H57.8459L54.9094 50.896L53.5699 51.4112H53.3895H53.0804L52.591 51.2309L52.488 51.1793L52.4107 51.1021L49.268 46.9805L48.8816 46.6199L48.3407 46.2593L48.0316 46.1047L45.6617 45.5123H44.8632L43.9101 45.6926L42.2872 45.7956L39.7628 46.285L39.2476 46.4396L38.8355 46.6714L38.4233 47.0578L38.1915 47.1866L37.9081 47.2381L36.1565 47.0578L35.1776 46.826L34.7397 46.8002L34.3276 46.8775L33.2972 46.9033V46.8517L33.0911 46.7745V46.6972L33.2714 46.3881L33.4518 45.7956L33.5548 45.2031L33.426 44.8683V44.6622L33.5548 44.4046L33.6836 44.0955L33.9154 42.859L33.9669 42.6787L34.0957 42.3696V42.2666V42.0605L34.2245 41.9575L34.5079 41.8029L34.4306 41.5711L34.3791 41.262L34.4306 41.0559L34.5852 41.1332L34.6109 41.0301H34.6624L34.5852 40.824L34.5594 40.5922L34.5852 40.3861L35.9504 40.618L37.3929 40.8756L40.9993 41.4938L42.8024 41.8029L44.9405 42.1893L47.6194 42.653L47.9543 42.6272L48.2634 42.4984L49.6029 41.4165L53.235 38.3769L55.3473 34.7963L56.017 33.6372L56.3004 33.3281L56.6352 33.1477L58.799 32.7098L62.3023 31.9886L65.3677 31.3446L65.6253 31.1127L66.1662 29.7733L67.0163 27.7125L67.3769 26.8367L67.5315 26.5791L67.8148 26.3473L70.5968 24.7759L71.4984 24.2607L71.6015 24.1835L68.3042 20.3196L66.9648 18.7482L65.4707 16.9708L62.3023 13.5191L59.1339 10.0673L65.1874 8.23838L71.2151 6.43522L71.653 6.30643L70.1847 11.7674L70.1332 12.2569L70.2104 13.1327L70.2877 13.5963L70.3135 13.7767L70.4165 14.0085L70.5968 14.2661L71.653 15.0389L72.0136 15.3995L72.4258 15.9662L72.7864 16.5844L72.9925 17.0739L73.4046 17.8209L73.6364 18.0785L73.894 18.3103L74.1516 18.4649L74.435 18.5937L74.9759 18.6967L75.5684 18.7482L81.0036 18.2073L84.7388 17.6406L86.3616 17.6663L94.6304 18.9543L95.0168 19.0573L95.3259 19.2377L95.6092 19.4437L96.4851 20.2423L96.8199 20.4226L97.2321 20.5771L98.3655 20.8347L105.037 20.9893L105.784 20.8863H106.969L107.459 21.0151L107.845 21.1954L110.266 23.1531L110.601 23.3334L111.013 23.4622L111.683 23.5652H112.662L114.104 23.7713L114.465 23.9001L114.929 24.1835L115.161 24.4411L115.47 24.8274L115.624 25.0593L116.191 26.3473L116.526 26.9655L116.758 27.2746L117.35 27.8671L119.179 29.2838L119.385 29.5414L119.488 29.8248L119.411 30.0824L119.205 30.3915L118.664 30.9582L117.659 31.7567L107.459 38.1451L106.145 39.1754L105.836 39.4588L105.604 39.7421L105.424 40.0255L105.346 40.3346L105.295 40.6437L104.986 45.3062L104.908 45.5895L104.805 45.8471L104.599 46.1562L102.873 47.8564Z" fill="#CDCDCD" stroke="white" stroke-width="2" stroke-linecap="round" stroke-linejoin="round"/>
<path d="M121.034 158.184L120.441 160.193L120.467 160.528L120.57 160.914L120.853 161.224L121.008 161.455L121.06 161.765L120.982 162.099L120.699 162.486L120.441 162.743L118.999 163.748L118.741 164.006L118.535 164.34L118.458 164.701L118.381 165.628L118.2 166.272L116.964 168.951L116.629 169.106L116.217 169.183H115.058L114.826 169.209L114.594 169.312L114.491 169.415L114.336 169.595L114.001 170.162L113.229 172.249L112.945 173.64L112.842 173.897L112.688 174.129L112.456 174.309L112.224 174.438L111.966 174.515L111.683 174.567H111.4L111.065 174.49L110.782 174.361L110.524 174.155L109.751 173.124L109.468 172.841L108.515 172.326L108.386 172.223L108.206 172.043L108.051 171.785L108 171.502V171.27L108.051 170.188L108.025 169.93L107.793 169.08V168.797L107.922 167.483V167.2L107.845 166.916L107.716 166.659L107.562 166.453L107.407 166.324L106.505 166.041L106.274 165.912L106.068 165.706L105.99 165.474L106.016 165.216L106.196 164.984L107.124 164.006L107.407 163.8L107.716 163.645L108.077 163.542L109.262 163.336L109.545 163.259L109.828 163.13L110.138 162.872L110.292 162.615L110.627 161.765L111.477 160.193L111.58 159.858V159.73L111.554 159.343L111.322 158.57L111.219 158.029V157.746L111.245 157.488L111.297 157.257L111.374 157.102L111.477 156.922L111.683 156.716L111.915 156.51L112.173 156.407L112.482 156.381L112.765 156.432L113.151 156.587L113.409 156.819L113.615 157.076L113.976 158.158L114.13 158.416L114.285 158.648L114.465 158.802L114.62 158.854H114.877L115.238 158.751L115.856 158.519L116.165 158.416L116.577 158.364H117.865L118.149 158.287L118.406 158.158L119.54 157.514L119.797 157.437L120.106 157.488L120.338 157.592L121.034 158.184Z" fill="#CDCDCD" stroke="white" stroke-width="2" stroke-linecap="round" stroke-linejoin="round"/>
<path d="M151.352 172.635V174.284L151.301 174.696L151.224 174.979L151.095 175.159L150.914 175.314L150.09 175.726L149.807 175.984L149.523 176.447L149.446 176.782V177.091L149.858 178.74L149.936 179.332V179.77L149.884 180.26L149.807 180.595L149.678 180.93L149.523 181.187L149.343 181.419L149.111 181.651L148.57 182.011L148.004 182.295L147.463 182.475L146.638 182.655L146.355 182.784L146.046 182.965L145.788 183.274L145.634 183.583L145.35 184.278L145.196 184.536L145.041 184.742L144.655 185.154L143.29 186.339L141.306 188.425L140.997 188.838L140.765 189.301L140.636 189.662V189.997L140.765 190.564L140.946 191.13L141.074 191.645L141.1 192.186L140.791 195.046L140.688 195.561L140.662 195.896L140.714 196.205L140.946 197.003L140.971 197.673L140.636 198.961V199.373L140.405 199.116L139.889 198.807L138.988 198.394L138.782 198.343H138.37L138.164 198.291L137.88 198.317L137.623 198.42L137.03 198.807L136 197.261L135.794 197.003L135.562 196.797L134.609 196.462L134.377 196.282L134.197 196.025L133.81 195.226L133.63 194.943L133.347 194.634L132.393 193.861L132.187 193.552L132.11 193.217L132.162 192.702L132.084 192.444L131.93 192.264L131.466 192.161L131.363 192.186L130.796 192.521L130.281 192.882L130.075 193.114L129.895 193.371L129.637 193.886L129.07 195.999L128.967 196.231L128.787 196.437L128.581 196.514H128.323L128.04 196.411L127.757 196.205L126.598 195.02L126.391 194.711L126.263 194.427L126.16 194.144L126.005 193.886L125.773 193.629L125.438 193.449L125.129 193.371L123.223 193.346L122.94 193.294L122.682 193.139L122.425 192.83L122.296 192.573L122.141 192.109L122.064 191.955L121.884 191.748L121.549 191.568L121.265 191.491L121.008 191.465L120.183 191.594L119.952 191.517L119.746 191.336L119.643 190.976L119.617 190.692L119.643 190.383L119.9 188.838L119.874 188.58L119.823 188.348L119.694 188.142L119.23 188.013L117.839 188.116L118.277 186.494L118.329 186.133V185.798L118.226 185.412L117.401 182.861L117.273 182.604L117.067 182.398L116.835 182.269L116.577 182.166L116.062 182.063L115.521 182.037H114.182L113.95 181.986L113.718 181.857L113.512 181.625L113.357 181.367L113.254 181.11L113.203 180.852L113.125 180.311L113.203 177.297L113.254 177.066L113.357 176.937L113.538 177.04L113.744 177.194L114.001 177.323H114.233L114.465 177.22L115.083 176.756L115.624 176.422L115.882 176.344L116.165 176.293H116.423L117.788 176.422H117.942L118.148 176.37L118.355 176.293L118.586 176.112L118.767 175.881L118.87 175.649L119.282 174.309V174L119.205 173.691L118.689 172.815L118.638 172.558L118.586 172.197L118.612 171.888L118.999 170.214L119.024 169.956L118.999 169.698L118.921 169.415L118.767 169.157L118.586 168.926L118.432 168.823L118.252 168.745L118.02 168.694L117.504 168.745L116.964 168.951L118.2 166.272L118.38 165.628L118.458 164.701L118.535 164.34L118.741 164.006L118.999 163.748L120.441 162.743L120.699 162.486L120.982 162.099L121.059 161.764L121.008 161.455L120.853 161.224L120.57 160.914L120.467 160.528L120.441 160.193L121.034 158.184L121.265 158.545L122.502 161.121L122.708 161.378L122.94 161.584L123.197 161.739L123.455 161.842L123.816 161.816L124.228 161.661L124.872 161.301L125.284 161.017L128.375 158.184L130.796 156.87L131.157 156.587L131.621 156.097L131.93 155.891L132.265 155.763L132.703 155.66H133.45L133.656 155.608L133.887 155.531L134.634 155.222L135.021 155.093L135.562 155.041L135.897 155.067L136.206 155.119L137.004 155.402L137.365 155.376L137.777 155.222L139.709 154.088L140.997 153.573L142.774 155.196L143.444 155.969L143.831 156.613L144.552 157.591L145.582 158.699L145.737 159.008L145.814 159.292L145.84 159.523L145.814 159.833L145.737 160.116L145.634 160.348L144.912 161.481L144.681 161.971L144.191 164.186V164.521L144.269 164.933L144.475 165.242L145.17 166.066L146.355 168.05L151.146 172.506L151.352 172.635Z" fill="#CDCDCD" stroke="white" stroke-width="2" stroke-linecap="round" stroke-linejoin="round"/>
<path d="M119.411 208.157L119.488 208.209L119.926 208.157L120.081 208.389H120.313L120.57 208.312H120.776L120.931 208.466V208.595H121.06L121.42 208.441L121.085 208.363L120.905 208.106L121.06 207.874L121.137 207.487L121.24 207.384L121.394 207.359L121.575 207.41L121.91 207.616L121.935 207.848L122.09 208.106L122.064 208.235L122.373 208.286L122.451 208.544L122.914 208.724V208.904L122.888 209.136L122.785 209.419L122.837 209.626L122.94 210.012L122.811 210.27V210.295L122.554 210.27L122.193 209.857L121.935 209.754L121.678 209.729L121.549 209.626L121.884 209.471L122.09 209.316L121.987 209.059L121.678 208.879L121.369 208.93L121.008 208.956L120.776 209.033L120.338 209.265L120.106 209.188L119.617 208.75L119.359 208.672L119.025 208.441L118.741 208.209L118.587 207.951L118.509 207.565L118.303 207.41H118.071L117.943 207.359L117.968 207.281L117.943 206.998L117.762 206.766L117.659 206.534L117.685 206.303L117.865 206.354L117.917 206.457L118.071 206.56L118.535 206.792L118.818 207.075L118.947 207.256L118.973 207.565V207.719L119.205 207.977L119.411 208.157ZM119.978 205.71V205.968L119.9 206.225L119.952 206.457L120.338 206.56L120.467 206.844H119.952L119.823 207.05L119.9 207.256L120.184 207.359L120.364 207.462L120.596 207.565L120.673 207.874V208.028L120.313 207.822L119.875 207.668L119.643 207.642L119.462 207.487L118.999 206.869L118.638 206.354L118.767 206.225H119.05L119.282 206.148L119.437 206.019L119.566 205.787L119.694 205.813L119.772 205.556L119.669 205.246L119.359 205.092H119.205L118.922 205.015H118.767L118.741 204.963L118.818 204.86L118.947 204.809L118.973 204.912L119.359 204.963L119.669 205.066L119.9 205.324L119.978 205.71ZM137.03 198.807L136.541 199.116L135.485 200.017L134.892 200.739L134.867 200.816L135.562 201.048L135.794 201.228L135.923 201.511L135.871 201.743L135.614 201.898L135.33 201.949L134.995 202.104L134.764 202.284L134.686 202.542V202.851L134.609 203.108L134.377 203.598L134.3 203.881L134.351 204.087L134.429 204.293L134.506 204.577V204.86L134.454 205.092L134.248 205.581L134.171 205.916L134.223 206.122L134.48 206.612L134.635 207.101L134.764 207.204L135.227 207.333L135.356 207.436L135.433 207.565V207.745L135.382 207.874L135.304 207.925L135.201 207.977L135.073 208.054L134.892 208.338L134.918 208.518L135.047 208.698L135.124 209.007L135.047 209.265L134.841 209.291L134.351 209.136L134.042 209.085L133.888 209.162L133.836 209.342L133.81 209.6L133.759 209.832L133.45 210.682L133.295 210.888L133.038 211.094L132.497 211.403L132.316 211.48L131.827 211.557L131.698 211.609L131.672 211.789L131.698 211.97V212.176L131.595 212.382L131.286 212.614L130.874 212.794L130.281 213L130.256 212.974V212.511L130.178 212.382L130.333 211.97L130.256 211.712L129.663 211.042L129.534 210.759L129.483 210.501L129.509 209.96L129.637 209.419V209.162L129.431 209.11L129.509 209.033L129.354 208.879L129.225 208.698L129.2 208.518L129.328 208.415L129.251 208.286L128.916 207.977L128.839 207.9L128.684 207.668L128.401 207.333L128.324 207.281L127.937 207.05H127.809L127.68 207.127L127.268 206.534L127.422 205.968L127.345 205.762V205.143L127.293 204.912L127.061 204.783L127.01 204.602L126.907 204.499L126.675 204.474L126.417 204.499L126.263 204.474L126.108 204.345L125.98 204.139L125.825 203.778L125.774 203.598L125.722 203.16L125.645 202.98L125.542 202.877L125.001 202.645L125.026 202.877L125.104 203.057L125.336 203.418L125.078 203.598L125.207 204.422L125.078 204.654L125.001 204.396V203.521L124.949 203.263L124.795 202.748L124.563 201.022L124.434 200.481L124.511 199.837L124.486 199.579L124.408 199.296L124.331 199.167L124.202 199.116L123.97 199.09L123.919 199.038L123.893 198.91L123.816 198.781L122.502 197.622L122.399 197.596L122.373 197.673L122.27 197.544L122.141 197.287L121.91 196.952L121.832 196.72L121.781 196.643L121.704 196.591L121.42 196.643L121.291 196.617L121.24 196.462L121.188 196.334L120.647 195.793L120.544 195.844L120.39 195.87L120.287 195.767L119.9 195.226L119.772 195.149L119.05 194.479L118.793 194.582L118.329 194.247L118.046 194.299L117.943 193.964L117.711 193.758L117.453 193.577L117.221 193.32L116.706 192.676L116.629 192.444L116.655 192.289L116.68 192.161L116.655 192.058L116.423 191.98L116.397 191.671L115.882 191.208L115.676 190.924L115.805 190.692L115.727 190.615L115.959 190.074L116.088 189.842L116.268 189.636L116.5 189.482L117.247 189.07L117.479 188.838L117.634 188.632L117.84 188.116L119.231 188.013L119.694 188.142L119.823 188.348L119.875 188.58L119.9 188.838L119.643 190.383L119.617 190.692L119.643 190.976L119.746 191.336L119.952 191.517L120.184 191.594L121.008 191.465L121.266 191.491L121.549 191.568L121.884 191.748L122.064 191.955L122.141 192.109L122.296 192.573L122.425 192.83L122.682 193.14L122.94 193.294L123.223 193.346L125.13 193.371L125.439 193.449L125.774 193.629L126.005 193.887L126.16 194.144L126.263 194.427L126.392 194.711L126.598 195.02L127.757 196.205L128.04 196.411L128.324 196.514H128.581L128.787 196.437L128.968 196.231L129.071 195.999L129.637 193.887L129.895 193.371L130.075 193.114L130.281 192.882L130.797 192.521L131.363 192.186L131.466 192.161L131.93 192.264L132.085 192.444L132.162 192.702L132.11 193.217L132.188 193.552L132.394 193.861L133.347 194.634L133.63 194.943L133.81 195.226L134.197 196.025L134.377 196.282L134.609 196.462L135.562 196.797L135.794 197.003L136 197.261L137.03 198.807Z" fill="#CDCDCD" stroke="white" stroke-width="2" stroke-linecap="round" stroke-linejoin="round"/>
<path d="M120.467 114.264L120.364 115.526L120.39 116.376L120.467 116.634L120.622 116.84L120.75 116.969L121.214 117.226L121.472 117.433L121.704 117.69L121.961 118.102L122.605 120.215L122.914 120.91L123.017 121.245L123.378 123.151L124.949 126.912L125.078 127.092L125.258 127.298L125.49 127.504L125.748 127.659L126.005 127.788L126.263 127.865L126.727 127.942L128.607 127.917L131.26 128.123L131.827 128.252L132.11 128.355L132.419 128.509L132.754 128.792L132.935 129.076L132.986 129.333L132.935 129.565L132.754 130.158L132.677 131.497V131.832L132.754 132.167L133.038 132.656L133.295 132.888L133.553 133.069L134.094 133.249L134.377 133.275L134.661 133.249L136.103 132.862L136.361 132.811L136.644 132.837L138.087 133.094L138.344 133.197L138.576 133.3L138.782 133.506V133.584L138.447 135.516V136.057L139.04 140.461V140.719L139.014 141.002L138.937 141.286L138.808 141.543L138.653 141.801L138.293 142.29L138.138 142.522L138.035 142.78L138.009 143.063L138.164 145.253L138.087 145.819L137.597 147.726L137.571 147.983L137.597 148.267L137.674 148.524L137.803 148.808L140.997 153.573L139.709 154.088L137.777 155.222L137.365 155.376L137.005 155.402L136.206 155.119L135.897 155.067L135.562 155.041L135.021 155.093L134.635 155.222L133.888 155.531L133.656 155.608L133.45 155.66H132.703L132.265 155.763L131.93 155.891L131.621 156.097L131.157 156.587L130.797 156.87L128.375 158.184L125.284 161.018L124.872 161.301L124.228 161.661L123.816 161.816L123.455 161.842L123.198 161.739L122.94 161.584L122.708 161.378L122.502 161.121L121.266 158.545L121.034 158.184L120.338 157.592L120.106 157.488L119.797 157.437L119.54 157.514L118.406 158.158L118.149 158.287L117.865 158.364H116.577L116.165 158.416L115.856 158.519L115.238 158.751L114.877 158.854H114.62L114.465 158.802L114.285 158.648L114.13 158.416L113.976 158.158L113.615 157.076L113.409 156.819L113.151 156.587L112.765 156.432L112.482 156.381L112.173 156.407L111.915 156.51L111.683 156.716L111.477 156.922L111.374 157.102L111.297 157.257L111.245 157.488L111.219 157.746V158.029L111.322 158.57L111.554 159.343L111.58 159.73V159.858L111.477 160.193L110.627 161.765L110.292 162.615L110.138 162.872L109.828 163.13L109.545 163.259L109.262 163.336L108.077 163.542L107.716 163.645L107.407 163.8L107.124 164.006L106.196 164.984L106.016 165.216L105.99 165.474L106.068 165.706L106.274 165.912L106.505 166.041L107.407 166.324L107.562 166.453L107.716 166.659L107.845 166.916L107.922 167.2V167.483L107.793 168.797V169.08L108.025 169.93L108.051 170.188L108 171.27V171.502L108.051 171.785L108.206 172.043L108.386 172.223L108.515 172.326L109.468 172.841L109.751 173.124L110.524 174.155L110.782 174.361L111.065 174.49L111.4 174.567H111.683L111.966 174.515L112.224 174.438L112.456 174.309L112.688 174.129L112.842 173.897L112.945 173.64L113.229 172.249L114.001 170.162L114.336 169.595L114.491 169.415L114.594 169.312L114.826 169.209L115.058 169.183H116.217L116.629 169.106L116.964 168.951L117.505 168.745L118.02 168.694L118.252 168.745L118.432 168.823L118.587 168.926L118.767 169.157L118.922 169.415L118.999 169.698L119.025 169.956L118.999 170.214L118.612 171.888L118.587 172.197L118.638 172.558L118.69 172.815L119.205 173.691L119.282 174V174.309L118.87 175.649L118.767 175.881L118.587 176.113L118.355 176.293L118.149 176.37L117.943 176.422H117.788L116.423 176.293H116.165L115.882 176.344L115.624 176.422L115.083 176.757L114.465 177.22L114.233 177.323H114.001L113.744 177.194L113.538 177.04L113.357 176.937L113.254 177.066L113.203 177.297L113.126 180.311L113.203 180.852L113.254 181.11L113.357 181.367L113.512 181.625L113.718 181.857L113.95 181.986L114.182 182.037H115.521L116.062 182.063L116.577 182.166L116.835 182.269L117.067 182.398L117.273 182.604L117.402 182.861L118.226 185.412L118.329 185.798V186.133L118.278 186.494L117.84 188.116L117.634 188.632L117.479 188.838L117.247 189.07L116.5 189.482L116.268 189.636L116.088 189.842L115.959 190.074L115.727 190.615L115.573 190.435L115.495 190.28L115.47 190.126L115.418 190.048L115.289 189.997L115.238 189.92L115.289 189.713L115.032 189.688L114.8 189.636L114.877 189.507L114.955 189.456L114.877 189.301L114.774 189.224H114.62L114.465 189.276L114.594 189.044L114.62 188.941L114.542 188.838L114.62 188.657L114.542 188.58L114.388 188.554L114.208 188.58L114.233 188.4L114.208 188.142L114.104 187.91L114.001 187.73L113.95 187.575L113.873 187.086L113.795 186.88V186.184L113.718 186.056L113.589 186.03L113.512 185.978L113.486 185.747L113.461 185.669L113.023 185.36L112.945 185.283V185.128L112.868 184.974L112.791 184.845L112.585 184.768L112.456 184.613L112.379 184.639L112.25 184.768L112.198 184.793L112.069 184.742L111.915 184.665L111.812 184.536L111.709 184.433L111.374 183.686L111.245 183.505L111.091 183.325L111.013 183.171L110.988 183.016L111.039 182.758L111.322 181.908L111.374 181.651L111.4 181.548L111.451 181.496L111.477 181.419L111.374 181.239H111.322L111.039 181.084V181.058L110.524 180.93L110.395 180.543V180.466L110.163 180.131L110.112 180.105L110.086 179.976L110.112 179.822L110.189 179.564L110.241 179.435L110.344 179.229L110.369 178.998L110.447 178.714L110.601 178.405L110.498 178.225L110.266 178.07L110.009 177.967L109.494 177.813L109.287 177.658L109.159 177.297L108.978 177.04L108.927 176.911V176.757L109.03 176.473V176.344L108.953 176.113L108.927 175.984L108.875 175.855L108.669 175.726L108.592 175.623L108.54 175.34L108.412 175.211L108.231 175.108L107.896 174.85L107.948 174.644L107.922 174.515L107.793 174.309L107.742 174.052L107.69 173.846V173.717L107.768 173.588L107.871 173.485L107.948 173.382L107.845 173.279L107.896 173.124L107.871 172.996L107.793 172.893L107.768 172.738L106.712 172.352L106.428 172.197L105.81 171.553L105.527 171.399V171.321L105.655 171.347L105.939 171.502L106.016 170.961L105.965 170.317L105.887 170.033L105.321 169.209L105.089 169.054L104.47 168.977L104.213 169.003L104.11 169.106L104.239 169.441L104.058 169.286L103.904 169.029L103.801 168.771V168.642L103.62 168.539L103.131 167.792L102.745 167.56L102.667 167.483V167.38L102.822 167.045L102.77 166.813L102.616 166.685L102.229 166.504L101.791 166.221L101.663 166.195L101.56 166.015L101.354 165.912L101.044 165.474L100.941 165.422L100.632 165.345H100.529L100.297 165.294L100.066 165.139L99.4989 164.701L99.061 164.186L99.1383 164.006L98.9322 163.851L98.6231 163.774L98.2367 163.722L98.1852 163.645L98.0564 163.49L97.8761 163.31L97.773 163.181V163.13L97.6442 163.052L97.2578 162.692L97.0518 162.589H96.7942L96.4851 162.64L96.2275 162.743L96.1244 162.846L95.8411 162.743L95.3259 162.434L95.0425 162.305L95.0683 162.46L95.1456 162.563L95.3516 162.718L95.5062 162.821L95.5835 162.898L95.5062 162.949L95.3001 162.898L94.1152 162.151L93.9349 161.996L93.7803 161.919L93.5227 161.868L93.3166 161.765L93.1106 161.352L92.9045 161.146L92.2605 160.631L91.9256 160.296L91.2044 159.137L90.9468 158.931V158.828H91.0756H91.1786L91.2559 158.751L91.2816 158.648L91.1013 158.622L90.9468 158.519L90.6634 158.261L90.5861 158.107L90.5089 157.72L90.4573 157.592L90.0452 157.128L90.0194 156.896L90.1998 156.587L89.7876 156.458L89.6073 156.432L89.633 156.51V156.613L89.3497 156.458L89.1951 156.252L89.2724 156.046L89.1694 155.994L89.1179 155.917V155.814L89.1951 155.711L89.2467 155.814L89.3497 155.891L89.4785 155.943L89.6073 155.969L89.5558 155.814L89.5043 155.531L89.3755 155.557L89.2724 155.531L89.1179 155.273H89.0406V155.531L88.783 155.35L88.4224 155.067L88.1648 154.758L88.1905 154.449L88.3451 154.603L88.4224 154.629L88.4481 154.526L88.3966 154.372L88.3451 154.32L88.242 154.294L88.036 154.165L87.9072 154.191L87.6496 154.269V154.217L87.3147 153.676L87.2374 153.496L87.1859 153.264V152.955L87.1601 152.852L86.9798 152.723L86.9541 152.62L86.9283 152.44L86.8768 152.388L86.7995 152.362L86.2843 152.002L86.1555 151.847L86.0782 151.487L85.9752 151.229L85.9495 151.074L85.9752 151.023L86.0782 150.843L86.104 150.765L86.0267 150.585L85.5631 149.864L85.4085 149.761L85.0221 149.142L85.9752 148.292L86.1298 147.983V147.571L86.0525 147.185L85.8464 146.979V146.901L86.001 146.798L85.9752 146.618L85.7691 146.18L85.6146 146.463L85.4858 146.489L85.3827 146.36L85.2539 146.077L85.357 146L85.1509 145.716L85.1251 145.33V144.918L85.0994 144.557L84.9706 144.197L84.9964 144.016L85.2282 143.913L85.3055 143.836L85.357 143.681V143.475L85.2539 143.295L85.1767 143.578L85.0994 143.681L85.0221 143.759H84.8418L84.816 143.707V143.604L84.7645 143.475L84.5842 143.321L84.5327 143.218L84.4812 143.089V142.883L84.4296 142.754L84.2751 142.677L84.1721 142.496L83.7599 141.956L83.425 141.183L83.1932 140.075L83.219 139.818L83.5281 139.689L83.8629 140.101L84.0948 140.127L84.1463 139.818V139.56L84.1721 139.431L84.4039 139.251L84.4296 139.199L84.4554 138.942L84.5842 138.426L84.61 138.143H84.5327L84.3524 138.607L84.2751 138.401L84.3008 138.272L84.3781 138.117L84.4296 137.937V137.396L84.5327 137.035L84.9191 136.572L85.0479 136.005L85.1251 135.876L85.2539 135.773L85.357 135.619L85.5115 135.258L85.7434 135.052L85.7691 135V134.82L85.7176 134.666L85.5888 134.588L85.4343 134.614L85.357 134.743L85.2539 135.129L85.1767 135.258L84.8933 135.31L84.8676 134.949L85.0221 134.382L84.9448 133.661L85.0221 132.914L84.9448 132.553L84.8418 132.373L84.5069 131.909L84.1721 131.188L83.9402 130.776L83.8629 130.57L83.8887 130.415L84.1978 130.106V130.003L83.6053 129.359L83.3735 129.153L83.2705 129.23L83.2962 129.282L83.5281 129.514L83.6053 129.643L83.6311 129.771L83.6826 130.055L83.7599 130.183L83.6826 130.287L83.5023 129.9L83.1674 129.359L82.8326 128.999L82.2143 127.839V127.659L82.575 127.865L82.9614 128.741L83.1932 128.818L83.322 128.896L83.425 128.87L83.5281 128.792L83.6053 128.638L83.4765 128.483L83.2705 128.071L83.0386 127.968L82.9614 127.865L82.8841 127.736L82.8326 127.582L82.7295 127.376L82.4977 127.273L82.2143 127.221L82.0083 127.092L81.7764 127.144L81.5961 126.938L81.3385 126.371L81.4673 126.242L81.5703 126.062L81.6476 125.856L81.6734 125.676L81.6476 125.289L81.5703 125.083V124.929L81.4158 124.877L81.3128 125.057L81.1582 124.774L80.9521 124.491L80.7203 124.053L80.5142 123.795L80.4112 123.486L80.2566 123.28L80.2309 123.1L80.1278 122.868V122.687L80.0505 122.301L79.8702 121.966L79.7157 121.58L79.6899 121.348L80.0505 121.296L81.5703 121.168L82.4462 120.987L82.8068 120.936L83.1417 121.039L83.3735 121.271L83.8887 122.095L84.0433 122.275L85.0221 123.151L85.9752 124.285L86.2586 124.516L86.5419 124.697L86.9541 124.774L87.4435 124.748L88.7315 124.516H89.0921L89.3239 124.645L89.4527 124.877L89.5043 125.135L89.5558 125.676L89.6846 125.882L89.9679 126.01L90.8953 125.83L93.497 125.032L94.6561 124.877L94.9137 124.903L95.1713 124.98L95.4032 125.16L95.532 125.392L95.6092 125.65L95.6607 125.882L95.6865 126.294L95.5835 126.938L95.532 127.17L94.8622 128.767L94.7849 129.024L94.8364 129.282L94.991 129.514L95.2228 129.617L96.0471 129.874L96.4078 130.055L96.6396 130.209L96.8714 130.441L97.0518 130.699L97.1806 130.956L97.2321 131.24L97.2578 131.523L97.1806 132.09L97.0518 132.631L97.026 132.888L97.0775 133.146L97.2063 133.378L97.4639 133.532H97.5154L98.314 133.661H98.5973L98.8549 133.635L99.164 133.558L99.4731 133.378L100.71 132.322L101.225 132.012L101.611 131.935L101.895 131.961L103.775 132.553L104.058 132.528L104.342 132.399L104.677 132.064L105.552 130.699L106.016 130.132L109.494 127.376L111.194 125.676L111.58 125.366L111.915 125.135L113.332 124.619L113.615 124.465L113.847 124.207L113.976 123.821L113.898 123.538L113.692 123.331L112.353 122.61L112.095 122.404L111.889 122.172L111.812 121.889L111.941 121.554L112.301 121.168L112.842 120.756L114.439 119.854L116.603 118.901L116.887 118.669L117.196 118.386L117.505 117.87L117.685 117.536L117.762 117.201L117.788 116.608L117.762 116.325L117.711 116.042L117.402 115.166L117.376 114.882L117.427 114.625L117.582 114.367L117.84 114.187L118.097 114.084L118.87 114.032L120.467 114.264Z" fill="#CDCDCD" stroke="white" stroke-width="2" stroke-linecap="round" stroke-linejoin="round"/>
<path d="M108.266 70.2374L105.779 70.9321C104.346 71.2958 103.026 70.0799 103.026 70.0799L98.9274 66.7797L95.3315 67.6482C93.4389 68.115 93.4335 65.6616 94.2771 65.3196L96.2454 64.6628L91.9681 60.8741L89.1941 61.8077C86.193 62.8607 86.0254 60.1847 87.4746 59.5442L89.3293 58.8386L82.6674 53.5463C72.8584 55.8315 68.8299 56.8031 68.0783 54.3388C67.3267 51.8527 72.0095 50.626 81.175 48.1563L84.6195 40.0414L82.343 40.3997C81.0019 40.6168 80.1313 38.4565 82.7053 37.8811L85.9659 37.1537L88.0153 31.7149L86.1119 31.9429C84.414 32.1708 83.7435 30.1136 86.2958 29.3809L89.6105 28.5232C89.7349 28.5124 91.5031 23.8117 91.5031 23.8117C92.2763 21.456 93.8931 21.3963 93.8931 21.3963L96.0561 21L92.3034 39.5855C91.9465 41.203 92.206 43.3525 94.2068 44.3133C95.272 44.8072 98.8193 44.6064 99.4033 44.4055L108.634 42.2561C108.85 42.2398 112.121 34.3529 112.121 34.3529C112.251 34.1412 115.566 32.8059 115.566 32.8059L115.317 41.6753L117.659 41.9195L115.588 42.9563L120 50.7563L116.399 51.0983C115.377 50.0995 109.542 45.6377 109.38 45.6268C109.38 45.6268 101.258 47.6515 100.782 47.7817C98.0406 48.5525 97.0781 48.8782 96.2994 49.6001C95.5208 50.3275 95.1855 51.8745 96.8564 55.0933C99.1545 59.5334 108.266 70.2374 108.266 70.2374Z" fill="#4A56F0"/>
<path d="M200.501 133.779C203.774 133.779 206.423 131.002 206.423 127.579C206.423 124.156 203.774 121.38 200.501 121.38C197.227 121.38 194.573 124.156 194.573 127.579C194.573 131.002 197.227 133.779 200.501 133.779ZM193.782 120.913C197.491 117.029 203.505 117.029 207.214 120.913C210.929 124.79 210.929 131.085 207.214 134.969L200.501 142L193.782 134.969C190.073 131.085 190.073 124.79 193.782 120.913Z" fill="#4A56F0"/>
<path d="M131.267 115.807L130.281 116.246C129.937 115.634 129.609 115.013 129.298 114.391L130.312 113.998C130.62 114.603 130.942 115.211 131.267 115.807ZM128.63 110.289C128.882 110.911 129.152 111.542 129.433 112.159L128.396 112.51C128.108 111.872 127.832 111.229 127.574 110.595L128.63 110.289ZM133.398 119.333L132.457 119.855C132.071 119.273 131.694 118.67 131.331 118.07L132.295 117.59C132.652 118.177 133.018 118.763 133.398 119.333ZM127.272 106.495C127.465 107.127 127.682 107.77 127.906 108.406L126.83 108.657C126.6 108.009 126.376 107.345 126.18 106.697L127.272 106.495ZM135.803 122.696L134.93 123.305C134.497 122.757 134.07 122.184 133.655 121.606L134.568 121.038C134.969 121.603 135.385 122.16 135.803 122.696ZM126.269 102.638C126.405 103.278 126.558 103.927 126.724 104.571L125.617 104.722C125.444 104.057 125.287 103.383 125.154 102.73L126.269 102.638ZM138.506 125.848L137.709 126.553C137.227 126.043 136.75 125.508 136.279 124.957L137.116 124.302C137.572 124.832 138.038 125.351 138.506 125.848ZM125.687 98.7568C125.75 99.3943 125.828 100.044 125.927 100.698L124.796 100.732C124.693 100.053 124.608 99.3819 124.55 98.7191L125.687 98.7568ZM141.513 128.693L140.833 129.505C140.301 129.064 139.758 128.576 139.227 128.076L139.964 127.313C140.482 127.801 141.004 128.264 141.513 128.693ZM125.574 94.8942C125.552 95.5245 125.548 96.1714 125.57 96.818L124.428 96.7173C124.403 96.0456 124.406 95.3693 124.43 94.7179L125.574 94.8942ZM144.863 131.042L144.385 131.998C143.782 131.658 143.168 131.264 142.548 130.828L143.146 129.946C143.72 130.357 144.301 130.722 144.863 131.042ZM125.993 91.1328C125.878 91.7436 125.783 92.3709 125.714 92.9977L124.576 92.7458C124.651 92.0936 124.742 91.4412 124.862 90.8052L125.993 91.1328ZM148.521 132.466L148.436 133.567C147.766 133.443 147.067 133.235 146.345 132.947L146.663 131.914C147.305 132.169 147.929 132.357 148.521 132.466ZM126.959 87.5314C126.748 88.1184 126.564 88.7134 126.405 89.308L125.297 88.9044C125.461 88.2845 125.656 87.6684 125.867 87.052L126.959 87.5314ZM152.221 132.272L152.611 133.367C151.941 133.524 151.26 133.626 150.594 133.682L150.366 132.564C150.978 132.513 151.605 132.416 152.221 132.272ZM128.425 84.1368C128.138 84.6955 127.868 85.2539 127.631 85.8035L126.572 85.2648C126.819 84.6941 127.091 84.1146 127.388 83.5347L128.425 84.1368ZM130.287 80.9337C129.931 81.485 129.613 82.0022 129.315 82.5148L128.305 81.8704C128.614 81.345 128.94 80.8193 129.303 80.2594L130.287 80.9337ZM156.315 131.98C155.78 132.253 155.246 132.496 154.715 132.706C154.651 132.732 154.587 132.758 154.518 132.78L153.999 131.729C154.059 131.707 154.12 131.685 154.184 131.659C154.682 131.459 155.185 131.233 155.683 130.973L156.315 131.98ZM132.393 77.874C131.956 78.4811 131.627 78.9522 131.32 79.3978L130.348 78.6898C130.655 78.2442 130.992 77.773 131.428 77.1574L132.393 77.874ZM159.547 129.887C159.03 130.285 158.506 130.663 157.985 130.998L157.275 130.042C157.777 129.72 158.278 129.36 158.768 128.974L159.547 129.887ZM153.564 113.775L152.607 114.276C152.237 113.685 151.904 113.09 151.601 112.498L151.556 112.414L152.573 112.017L152.615 112.105C152.895 112.655 153.22 113.221 153.564 113.775ZM151.208 108.329C151.349 108.944 151.543 109.575 151.778 110.198L150.709 110.47C150.458 109.797 150.249 109.116 150.093 108.45L151.208 108.329ZM155.993 117.07L155.156 117.725C154.68 117.169 154.228 116.605 153.816 116.044L154.714 115.463C155.111 115.995 155.538 116.539 155.993 117.07ZM134.563 74.8175C134.26 75.2589 133.927 75.7342 133.479 76.3541L132.52 75.6417C132.959 75.022 133.293 74.555 133.592 74.1179L134.563 74.8175ZM116.788 37.5682L116.301 38.5163C115.711 38.1807 115.095 37.837 114.476 37.4975L114.944 36.5329C115.568 36.8765 116.189 37.2243 116.788 37.5682ZM162.371 127.325C161.923 127.789 161.464 128.237 161.008 128.651L160.176 127.79C160.616 127.384 161.061 126.954 161.494 126.506L162.371 127.325ZM150.964 104.648C150.869 105.129 150.844 105.646 150.877 106.191C150.884 106.271 150.887 106.355 150.899 106.439L149.762 106.401C149.749 106.309 149.741 106.221 149.736 106.128C149.69 105.491 149.728 104.881 149.835 104.308L150.964 104.648ZM158.855 120.056L158.122 120.823C157.595 120.326 157.079 119.817 156.593 119.312L157.381 118.599C157.851 119.084 158.347 119.576 158.855 120.056ZM162.022 122.764L161.375 123.605C160.808 123.156 160.253 122.702 159.724 122.248L160.409 121.44C160.929 121.886 161.469 122.327 162.022 122.764ZM136.571 71.5997C136.284 72.129 135.968 72.6629 135.607 73.2395L134.611 72.5696C134.966 72.0099 135.267 71.493 135.548 70.9806L136.571 71.5997ZM120.417 39.7573L119.884 40.6809C119.306 40.3115 118.709 39.9465 118.103 39.5817L118.613 38.6458C119.227 39.0105 119.835 39.3837 120.417 39.7573ZM152.727 101.804C152.261 102.172 151.879 102.598 151.583 103.06L150.591 102.394C150.946 101.834 151.402 101.332 151.952 100.895L152.727 101.804ZM165.397 125.209L164.832 126.112C164.546 125.919 164.256 125.722 163.979 125.528C163.866 125.66 163.756 125.788 163.643 125.92L162.733 125.139C163.128 124.68 163.514 124.199 163.895 123.707L164.838 124.449C164.777 124.529 164.713 124.614 164.643 124.695C164.896 124.868 165.146 125.045 165.397 125.209ZM123.951 42.1242L123.357 43.0025C122.802 42.6076 122.221 42.2129 121.632 41.8185L122.197 40.9154C122.796 41.3181 123.386 41.721 123.951 42.1242ZM138.092 68.053C137.913 68.6521 137.685 69.2687 137.421 69.8775L136.358 69.3346C136.609 68.7597 136.825 68.1768 136.997 67.6156L138.092 68.053ZM168.929 127.433L168.429 128.377C167.819 128.017 167.203 127.644 166.617 127.274L167.146 126.347C167.726 126.712 168.324 127.077 168.929 127.433ZM127.347 44.7116L126.681 45.5364C126.155 45.1074 125.603 44.6703 125.043 44.2418L125.666 43.3883C126.244 43.8249 126.806 44.2702 127.347 44.7116ZM155.618 99.2701L155.991 100.365C155.456 100.482 154.951 100.633 154.485 100.816C154.405 100.851 154.329 100.881 154.249 100.916L153.685 99.8785C153.773 99.8436 153.865 99.8044 153.954 99.7695C154.468 99.5686 155.03 99.4007 155.618 99.2701ZM166.992 121.334C166.659 121.868 166.309 122.402 165.952 122.916L164.982 122.216C165.331 121.711 165.67 121.189 165.995 120.664L166.992 121.334ZM138.735 64.1371C138.722 64.8052 138.658 65.474 138.546 66.1309L137.422 65.8242C137.519 65.2137 137.577 64.5912 137.597 63.9734L138.735 64.1371ZM130.545 47.5582L129.788 48.3045C129.307 47.8328 128.796 47.3573 128.264 46.8864L128.973 46.0988C129.519 46.5821 130.045 47.07 130.545 47.5582ZM172.572 129.45L172.135 130.427C171.51 130.104 170.882 129.765 170.27 129.425L170.74 128.469C171.336 128.796 171.955 129.127 172.572 129.45ZM133.452 50.7157L132.594 51.3459C132.17 50.8271 131.716 50.3046 131.237 49.7909L132.044 49.0943C132.538 49.6288 133.012 50.1762 133.452 50.7157ZM138.309 60.0649C138.399 60.4374 138.473 60.8186 138.529 61.1916C138.585 61.4974 138.623 61.8034 138.656 62.1054L137.518 62.0887C137.486 61.8035 137.452 61.5226 137.404 61.2377C137.346 60.8857 137.276 60.5297 137.198 60.1823L138.309 60.0649ZM135.915 54.2158L134.941 54.6881C134.608 54.1218 134.235 53.5435 133.834 52.9782L134.749 52.4186C135.171 53.0172 135.56 53.6162 135.915 54.2158ZM136.918 56.0953C137.224 56.7418 137.494 57.4014 137.724 58.0491L136.648 58.3003C136.436 57.6902 136.175 57.0682 135.892 56.4633L136.918 56.0953ZM168.845 118.013C168.563 118.576 168.264 119.139 167.955 119.694L166.936 119.071C167.242 118.528 167.53 117.978 167.805 117.424L168.845 118.013ZM159.712 98.9783L159.782 100.095C159.125 100.062 158.481 100.063 157.859 100.106L157.64 98.9881C158.312 98.9445 159.007 98.9426 159.712 98.9783ZM176.308 131.28L175.93 132.286C175.282 131.989 174.642 131.683 174.024 131.381L174.433 130.388C175.046 130.686 175.673 130.987 176.308 131.28ZM170.372 114.508C170.156 115.091 169.913 115.687 169.652 116.283L168.597 115.74C168.843 115.161 169.081 114.582 169.294 114.012L170.372 114.508ZM180.108 132.938L179.78 133.963C179.129 133.7 178.48 133.424 177.848 133.148L178.202 132.13C178.826 132.406 179.465 132.674 180.108 132.938ZM163.861 99.6938L163.662 100.764C163.034 100.58 162.382 100.434 161.73 100.318L161.789 99.2163C162.488 99.3361 163.189 99.4938 163.861 99.6938ZM171.488 110.791C171.356 111.394 171.194 112.031 170.996 112.68L169.892 112.243C170.085 111.619 170.243 111.016 170.366 110.434L171.488 110.791ZM183.968 134.439L183.681 135.485C183.028 135.242 182.37 134.996 181.725 134.745L182.03 133.707C182.667 133.958 183.32 134.2 183.968 134.439ZM167.836 101.449L167.298 102.369C166.763 102.028 166.169 101.718 165.537 101.441L165.892 100.424C166.586 100.724 167.241 101.072 167.836 101.449ZM171.778 106.742C171.858 107.35 171.866 108.051 171.796 108.825L170.657 108.594C170.717 107.9 170.712 107.283 170.644 106.759L171.778 106.742ZM171.02 104.615L170.036 105.071C169.739 104.55 169.342 104.048 168.853 103.576L169.605 102.826C170.179 103.385 170.657 103.986 171.02 104.615ZM187.866 135.788L187.623 136.85C186.965 136.633 186.303 136.412 185.652 136.186L185.913 135.132C186.555 135.358 187.213 135.575 187.866 135.788ZM191.795 137.002L191.596 138.072C190.93 137.885 190.266 137.684 189.606 137.48L189.827 136.414C190.474 136.614 191.138 136.815 191.795 137.002ZM195.754 138.086L195.595 139.168C194.926 138.993 194.252 138.814 193.592 138.639L193.773 137.561C194.425 137.736 195.093 137.911 195.754 138.086ZM199.732 139.039L199.608 140.129C198.938 139.975 198.259 139.821 197.601 139.663L197.742 138.573C198.4 138.731 199.067 138.89 199.732 139.039Z" fill="#4A56F0"/>
</svg>
